<?xml version="1.0" encoding="us-ascii" standalone="no"?><svg xmlns="http://www.w3.org/2000/svg" xmlns:xlink="http://www.w3.org/1999/xlink" contentStyleType="text/css" height="419px" preserveAspectRatio="none" style="width:1659px;height:419px;background:#FFFFFF;" version="1.1" viewBox="0 0 1659 419" width="1659px" zoomAndPan="magnify"><defs/><g><text fill="#000000" font-family="sans-serif" font-size="14" font-weight="bold" lengthAdjust="spacing" textLength="137" x="754" y="24.5332">ER-Diagram Go ESB</text><!--class eGlobal--><g id="elem_eGlobal"><rect codeLine="6" fill="#F1F1F1" height="83.2188" id="eGlobal" rx="2.5" ry="2.5" style="stroke:#181818;stroke-width:0.5;" width="269" x="1169" y="72.1094"/><ellipse cx="1278.75" cy="88.1094" fill="#ADD1B2" rx="11" ry="11" style="stroke:#181818;stroke-width:1.0;"/><path d="M1277.6094,88.9063 L1277.6094,91.4063 L1281.9375,91.4063 L1281.9375,90.4844 Q1281.9375,89.875 1282.1719,89.6094 Q1282.4219,89.3438 1282.7969,89.3438 Q1283.1719,89.3438 1283.4063,89.6094 Q1283.6406,89.875 1283.6406,90.4844 L1283.6406,93.1094 L1275.6406,93.1094 Q1275.0156,93.1094 1274.75,92.875 Q1274.5,92.6406 1274.5,92.25 Q1274.5,91.875 1274.7656,91.6406 Q1275.0313,91.4063 1275.6406,91.4063 L1275.9063,91.4063 L1275.9063,84.75 L1275.6406,84.75 Q1275.0156,84.75 1274.75,84.5156 Q1274.5,84.2813 1274.5,83.8906 Q1274.5,83.5156 1274.75,83.2813 Q1275.0156,83.0469 1275.6406,83.0469 L1283.2656,83.0469 L1283.2656,85.6406 Q1283.2656,86.25 1283.0313,86.5156 Q1282.8125,86.7656 1282.4219,86.7656 Q1282.0469,86.7656 1281.8125,86.5156 Q1281.5781,86.25 1281.5781,85.6406 L1281.5781,84.75 L1277.6094,84.75 L1277.6094,87.2031 L1279.0938,87.2031 Q1279.0938,86.5469 1279.2188,86.3594 Q1279.4844,85.9531 1279.9531,85.9531 Q1280.3281,85.9531 1280.5625,86.2188 Q1280.7969,86.4688 1280.7969,87.0781 L1280.7969,89.0469 Q1280.7969,89.5938 1280.6719,89.7813 Q1280.4063,90.1719 1279.9531,90.1719 Q1279.4844,90.1719 1279.2188,89.7656 Q1279.0938,89.5781 1279.0938,88.9063 L1277.6094,88.9063 Z " fill="#000000"/><text fill="#000000" font-family="sans-serif" font-size="14" lengthAdjust="spacing" textLength="41" x="1299.25" y="93.8379">Global</text><line style="stroke:#181818;stroke-width:0.5;" x1="1170" x2="1437" y1="104.1094" y2="104.1094"/><ellipse cx="1180" cy="118.4141" fill="#000000" rx="3" ry="3" style="stroke:#000000;stroke-width:1.0;"/><text fill="#000000" font-family="sans-serif" font-size="14" lengthAdjust="spacing" textLength="133" x="1189" y="122.6426">name : varchar (100)</text><line style="stroke:#181818;stroke-width:1.0;" x1="1170" x2="1437" y1="129.7188" y2="129.7188"/><ellipse cx="1180" cy="144.0234" fill="#000000" rx="3" ry="3" style="stroke:#000000;stroke-width:1.0;"/><text fill="#000000" font-family="sans-serif" font-size="14" lengthAdjust="spacing" textLength="243" x="1189" y="148.252">value : int, varchar, boolean, dateTime</text></g><!--class eUsers--><g id="elem_eUsers"><rect codeLine="12" fill="#F1F1F1" height="100.8281" id="eUsers" rx="2.5" ry="2.5" style="stroke:#181818;stroke-width:0.5;" width="179" x="1473" y="63.1094"/><ellipse cx="1540.25" cy="79.1094" fill="#ADD1B2" rx="11" ry="11" style="stroke:#181818;stroke-width:1.0;"/><path d="M1539.1094,79.9063 L1539.1094,82.4063 L1543.4375,82.4063 L1543.4375,81.4844 Q1543.4375,80.875 1543.6719,80.6094 Q1543.9219,80.3438 1544.2969,80.3438 Q1544.6719,80.3438 1544.9063,80.6094 Q1545.1406,80.875 1545.1406,81.4844 L1545.1406,84.1094 L1537.1406,84.1094 Q1536.5156,84.1094 1536.25,83.875 Q1536,83.6406 1536,83.25 Q1536,82.875 1536.2656,82.6406 Q1536.5313,82.4063 1537.1406,82.4063 L1537.4063,82.4063 L1537.4063,75.75 L1537.1406,75.75 Q1536.5156,75.75 1536.25,75.5156 Q1536,75.2813 1536,74.8906 Q1536,74.5156 1536.25,74.2813 Q1536.5156,74.0469 1537.1406,74.0469 L1544.7656,74.0469 L1544.7656,76.6406 Q1544.7656,77.25 1544.5313,77.5156 Q1544.3125,77.7656 1543.9219,77.7656 Q1543.5469,77.7656 1543.3125,77.5156 Q1543.0781,77.25 1543.0781,76.6406 L1543.0781,75.75 L1539.1094,75.75 L1539.1094,78.2031 L1540.5938,78.2031 Q1540.5938,77.5469 1540.7188,77.3594 Q1540.9844,76.9531 1541.4531,76.9531 Q1541.8281,76.9531 1542.0625,77.2188 Q1542.2969,77.4688 1542.2969,78.0781 L1542.2969,80.0469 Q1542.2969,80.5938 1542.1719,80.7813 Q1541.9063,81.1719 1541.4531,81.1719 Q1540.9844,81.1719 1540.7188,80.7656 Q1540.5938,80.5781 1540.5938,79.9063 L1539.1094,79.9063 Z " fill="#000000"/><text fill="#000000" font-family="sans-serif" font-size="14" lengthAdjust="spacing" textLength="36" x="1560.75" y="84.8379">Users</text><line style="stroke:#181818;stroke-width:0.5;" x1="1474" x2="1651" y1="95.1094" y2="95.1094"/><ellipse cx="1484" cy="109.4141" fill="#000000" rx="3" ry="3" style="stroke:#000000;stroke-width:1.0;"/><text fill="#000000" font-family="sans-serif" font-size="14" lengthAdjust="spacing" textLength="94" x="1493" y="113.6426">ref : uuid &#171;FK&#187;</text><line style="stroke:#181818;stroke-width:1.0;" x1="1474" x2="1651" y1="120.7188" y2="120.7188"/><ellipse cx="1484" cy="135.0234" fill="#000000" rx="3" ry="3" style="stroke:#000000;stroke-width:1.0;"/><text fill="#000000" font-family="sans-serif" font-size="14" lengthAdjust="spacing" textLength="153" x="1493" y="139.252">username : varchar (50)</text><ellipse cx="1484" cy="152.6328" fill="#000000" rx="3" ry="3" style="stroke:#000000;stroke-width:1.0;"/><text fill="#000000" font-family="sans-serif" font-size="14" lengthAdjust="spacing" textLength="150" x="1493" y="156.8613">password : varchar (50)</text></g><!--class eSystems--><g id="elem_eSystems"><rect codeLine="19" fill="#F1F1F1" height="83.2188" id="eSystems" rx="2.5" ry="2.5" style="stroke:#181818;stroke-width:0.5;" width="167" x="117" y="72.1094"/><ellipse cx="169.75" cy="88.1094" fill="#ADD1B2" rx="11" ry="11" style="stroke:#181818;stroke-width:1.0;"/><path d="M168.6094,88.9063 L168.6094,91.4063 L172.9375,91.4063 L172.9375,90.4844 Q172.9375,89.875 173.1719,89.6094 Q173.4219,89.3438 173.7969,89.3438 Q174.1719,89.3438 174.4063,89.6094 Q174.6406,89.875 174.6406,90.4844 L174.6406,93.1094 L166.6406,93.1094 Q166.0156,93.1094 165.75,92.875 Q165.5,92.6406 165.5,92.25 Q165.5,91.875 165.7656,91.6406 Q166.0313,91.4063 166.6406,91.4063 L166.9063,91.4063 L166.9063,84.75 L166.6406,84.75 Q166.0156,84.75 165.75,84.5156 Q165.5,84.2813 165.5,83.8906 Q165.5,83.5156 165.75,83.2813 Q166.0156,83.0469 166.6406,83.0469 L174.2656,83.0469 L174.2656,85.6406 Q174.2656,86.25 174.0313,86.5156 Q173.8125,86.7656 173.4219,86.7656 Q173.0469,86.7656 172.8125,86.5156 Q172.5781,86.25 172.5781,85.6406 L172.5781,84.75 L168.6094,84.75 L168.6094,87.2031 L170.0938,87.2031 Q170.0938,86.5469 170.2188,86.3594 Q170.4844,85.9531 170.9531,85.9531 Q171.3281,85.9531 171.5625,86.2188 Q171.7969,86.4688 171.7969,87.0781 L171.7969,89.0469 Q171.7969,89.5938 171.6719,89.7813 Q171.4063,90.1719 170.9531,90.1719 Q170.4844,90.1719 170.2188,89.7656 Q170.0938,89.5781 170.0938,88.9063 L168.6094,88.9063 Z " fill="#000000"/><text fill="#000000" font-family="sans-serif" font-size="14" lengthAdjust="spacing" textLength="53" x="190.25" y="93.8379">Systems</text><line style="stroke:#181818;stroke-width:0.5;" x1="118" x2="283" y1="104.1094" y2="104.1094"/><ellipse cx="128" cy="118.4141" fill="#000000" rx="3" ry="3" style="stroke:#000000;stroke-width:1.0;"/><text fill="#000000" font-family="sans-serif" font-size="14" lengthAdjust="spacing" textLength="141" x="137" y="122.6426">ref : uuid &#171;generated&#187;</text><line style="stroke:#181818;stroke-width:1.0;" x1="118" x2="283" y1="129.7188" y2="129.7188"/><ellipse cx="128" cy="144.0234" fill="#000000" rx="3" ry="3" style="stroke:#000000;stroke-width:1.0;"/><text fill="#000000" font-family="sans-serif" font-size="14" lengthAdjust="spacing" textLength="133" x="137" y="148.252">name : varchar (100)</text></g><!--class eConnectionSettings--><g id="elem_eConnectionSettings"><rect codeLine="25" fill="#F1F1F1" height="171.2656" id="eConnectionSettings" rx="2.5" ry="2.5" style="stroke:#181818;stroke-width:0.5;" width="167" x="7" y="241.6094"/><ellipse cx="27.4" cy="257.6094" fill="#ADD1B2" rx="11" ry="11" style="stroke:#181818;stroke-width:1.0;"/><path d="M26.2594,258.4063 L26.2594,260.9063 L30.5875,260.9063 L30.5875,259.9844 Q30.5875,259.375 30.8219,259.1094 Q31.0719,258.8438 31.4469,258.8438 Q31.8219,258.8438 32.0563,259.1094 Q32.2906,259.375 32.2906,259.9844 L32.2906,262.6094 L24.2906,262.6094 Q23.6656,262.6094 23.4,262.375 Q23.15,262.1406 23.15,261.75 Q23.15,261.375 23.4156,261.1406 Q23.6813,260.9063 24.2906,260.9063 L24.5563,260.9063 L24.5563,254.25 L24.2906,254.25 Q23.6656,254.25 23.4,254.0156 Q23.15,253.7813 23.15,253.3906 Q23.15,253.0156 23.4,252.7813 Q23.6656,252.5469 24.2906,252.5469 L31.9156,252.5469 L31.9156,255.1406 Q31.9156,255.75 31.6813,256.0156 Q31.4625,256.2656 31.0719,256.2656 Q30.6969,256.2656 30.4625,256.0156 Q30.2281,255.75 30.2281,255.1406 L30.2281,254.25 L26.2594,254.25 L26.2594,256.7031 L27.7438,256.7031 Q27.7438,256.0469 27.8688,255.8594 Q28.1344,255.4531 28.6031,255.4531 Q28.9781,255.4531 29.2125,255.7188 Q29.4469,255.9688 29.4469,256.5781 L29.4469,258.5469 Q29.4469,259.0938 29.3219,259.2813 Q29.0563,259.6719 28.6031,259.6719 Q28.1344,259.6719 27.8688,259.2656 Q27.7438,259.0781 27.7438,258.4063 L26.2594,258.4063 Z " fill="#000000"/><text fill="#000000" font-family="sans-serif" font-size="14" lengthAdjust="spacing" textLength="123" x="42.6" y="263.3379">ConnectionSettings</text><line style="stroke:#181818;stroke-width:0.5;" x1="8" x2="173" y1="273.6094" y2="273.6094"/><ellipse cx="18" cy="287.9141" fill="#000000" rx="3" ry="3" style="stroke:#000000;stroke-width:1.0;"/><text fill="#000000" font-family="sans-serif" font-size="14" lengthAdjust="spacing" textLength="141" x="27" y="292.1426">ref : uuid &#171;generated&#187;</text><line style="stroke:#181818;stroke-width:1.0;" x1="8" x2="173" y1="299.2188" y2="299.2188"/><ellipse cx="18" cy="313.5234" fill="#000000" rx="3" ry="3" style="stroke:#000000;stroke-width:1.0;"/><text fill="#000000" font-family="sans-serif" font-size="14" lengthAdjust="spacing" textLength="133" x="27" y="317.752">name : varchar (100)</text><ellipse cx="18" cy="331.1328" fill="#000000" rx="3" ry="3" style="stroke:#000000;stroke-width:1.0;"/><text fill="#000000" font-family="sans-serif" font-size="14" lengthAdjust="spacing" textLength="121" x="27" y="335.3613">system : uuid &#171;FK&#187;</text><text fill="#000000" font-family="sans-serif" font-size="14" lengthAdjust="spacing" textLength="101" x="27" y="352.9707">ip : varchar (50)</text><text fill="#000000" font-family="sans-serif" font-size="14" lengthAdjust="spacing" textLength="115" x="27" y="370.5801">port : varchar (50)</text><text fill="#000000" font-family="sans-serif" font-size="14" lengthAdjust="spacing" textLength="126" x="27" y="388.1895">path : varchar (300)</text><text fill="#000000" font-family="sans-serif" font-size="14" lengthAdjust="spacing" textLength="105" x="27" y="405.7988">auth : uuid &#171;FK&#187;</text></g><!--class eConnectionAuthentications--><g id="elem_eConnectionAuthentications"><rect codeLine="38" fill="#F1F1F1" height="171.2656" id="eConnectionAuthentications" rx="2.5" ry="2.5" style="stroke:#181818;stroke-width:0.5;" width="201" x="209" y="241.6094"/><ellipse cx="224" cy="257.6094" fill="#ADD1B2" rx="11" ry="11" style="stroke:#181818;stroke-width:1.0;"/><path d="M222.8594,258.4063 L222.8594,260.9063 L227.1875,260.9063 L227.1875,259.9844 Q227.1875,259.375 227.4219,259.1094 Q227.6719,258.8438 228.0469,258.8438 Q228.4219,258.8438 228.6563,259.1094 Q228.8906,259.375 228.8906,259.9844 L228.8906,262.6094 L220.8906,262.6094 Q220.2656,262.6094 220,262.375 Q219.75,262.1406 219.75,261.75 Q219.75,261.375 220.0156,261.1406 Q220.2813,260.9063 220.8906,260.9063 L221.1563,260.9063 L221.1563,254.25 L220.8906,254.25 Q220.2656,254.25 220,254.0156 Q219.75,253.7813 219.75,253.3906 Q219.75,253.0156 220,252.7813 Q220.2656,252.5469 220.8906,252.5469 L228.5156,252.5469 L228.5156,255.1406 Q228.5156,255.75 228.2813,256.0156 Q228.0625,256.2656 227.6719,256.2656 Q227.2969,256.2656 227.0625,256.0156 Q226.8281,255.75 226.8281,255.1406 L226.8281,254.25 L222.8594,254.25 L222.8594,256.7031 L224.3438,256.7031 Q224.3438,256.0469 224.4688,255.8594 Q224.7344,255.4531 225.2031,255.4531 Q225.5781,255.4531 225.8125,255.7188 Q226.0469,255.9688 226.0469,256.5781 L226.0469,258.5469 Q226.0469,259.0938 225.9219,259.2813 Q225.6563,259.6719 225.2031,259.6719 Q224.7344,259.6719 224.4688,259.2656 Q224.3438,259.0781 224.3438,258.4063 L222.8594,258.4063 Z " fill="#000000"/><text fill="#000000" font-family="sans-serif" font-size="14" lengthAdjust="spacing" textLength="169" x="238" y="263.3379">ConnectionAuthentications</text><line style="stroke:#181818;stroke-width:0.5;" x1="210" x2="409" y1="273.6094" y2="273.6094"/><ellipse cx="220" cy="287.9141" fill="#000000" rx="3" ry="3" style="stroke:#000000;stroke-width:1.0;"/><text fill="#000000" font-family="sans-serif" font-size="14" lengthAdjust="spacing" textLength="141" x="229" y="292.1426">ref : uuid &#171;generated&#187;</text><line style="stroke:#181818;stroke-width:1.0;" x1="210" x2="409" y1="299.2188" y2="299.2188"/><ellipse cx="220" cy="313.5234" fill="#000000" rx="3" ry="3" style="stroke:#000000;stroke-width:1.0;"/><text fill="#000000" font-family="sans-serif" font-size="14" lengthAdjust="spacing" textLength="133" x="229" y="317.752">name : varchar (100)</text><ellipse cx="220" cy="331.1328" fill="#000000" rx="3" ry="3" style="stroke:#000000;stroke-width:1.0;"/><text fill="#000000" font-family="sans-serif" font-size="14" lengthAdjust="spacing" textLength="121" x="229" y="335.3613">system : uuid &#171;FK&#187;</text><ellipse cx="220" cy="348.7422" fill="#000000" rx="3" ry="3" style="stroke:#000000;stroke-width:1.0;"/><text fill="#000000" font-family="sans-serif" font-size="14" lengthAdjust="spacing" textLength="104" x="229" y="352.9707">type : uuid &#171;FK&#187;</text><text fill="#000000" font-family="sans-serif" font-size="14" lengthAdjust="spacing" textLength="153" x="229" y="370.5801">username : varchar (50)</text><text fill="#000000" font-family="sans-serif" font-size="14" lengthAdjust="spacing" textLength="150" x="229" y="388.1895">password : varchar (50)</text><text fill="#000000" font-family="sans-serif" font-size="14" lengthAdjust="spacing" textLength="133" x="229" y="405.7988">token : varchar (100)</text></g><!--class eAuthenticationTypes--><g id="elem_eAuthenticationTypes"><rect codeLine="97" fill="#F1F1F1" height="83.2188" id="eAuthenticationTypes" rx="2.5" ry="2.5" style="stroke:#181818;stroke-width:0.5;" width="161" x="445" y="285.6094"/><ellipse cx="460" cy="301.6094" fill="#EB937F" rx="11" ry="11" style="stroke:#181818;stroke-width:1.0;"/><path d="M458.8594,302.4063 L458.8594,304.9063 L463.1875,304.9063 L463.1875,303.9844 Q463.1875,303.375 463.4219,303.1094 Q463.6719,302.8438 464.0469,302.8438 Q464.4219,302.8438 464.6563,303.1094 Q464.8906,303.375 464.8906,303.9844 L464.8906,306.6094 L456.8906,306.6094 Q456.2656,306.6094 456,306.375 Q455.75,306.1406 455.75,305.75 Q455.75,305.375 456.0156,305.1406 Q456.2813,304.9063 456.8906,304.9063 L457.1563,304.9063 L457.1563,298.25 L456.8906,298.25 Q456.2656,298.25 456,298.0156 Q455.75,297.7813 455.75,297.3906 Q455.75,297.0156 456,296.7813 Q456.2656,296.5469 456.8906,296.5469 L464.5156,296.5469 L464.5156,299.1406 Q464.5156,299.75 464.2813,300.0156 Q464.0625,300.2656 463.6719,300.2656 Q463.2969,300.2656 463.0625,300.0156 Q462.8281,299.75 462.8281,299.1406 L462.8281,298.25 L458.8594,298.25 L458.8594,300.7031 L460.3438,300.7031 Q460.3438,300.0469 460.4688,299.8594 Q460.7344,299.4531 461.2031,299.4531 Q461.5781,299.4531 461.8125,299.7188 Q462.0469,299.9688 462.0469,300.5781 L462.0469,302.5469 Q462.0469,303.0938 461.9219,303.2813 Q461.6563,303.6719 461.2031,303.6719 Q460.7344,303.6719 460.4688,303.2656 Q460.3438,303.0781 460.3438,302.4063 L458.8594,302.4063 Z " fill="#000000"/><text fill="#000000" font-family="sans-serif" font-size="14" lengthAdjust="spacing" textLength="129" x="474" y="307.3379">AuthenticationTypes</text><line style="stroke:#181818;stroke-width:0.5;" x1="446" x2="605" y1="317.6094" y2="317.6094"/><ellipse cx="456" cy="331.9141" fill="none" rx="3" ry="3" style="stroke:#038048;stroke-width:1.0;"/><text fill="#000000" font-family="sans-serif" font-size="14" lengthAdjust="spacing" textLength="34" x="465" y="336.1426">Basic</text><ellipse cx="456" cy="349.5234" fill="none" rx="3" ry="3" style="stroke:#038048;stroke-width:1.0;"/><text fill="#000000" font-family="sans-serif" font-size="14" lengthAdjust="spacing" textLength="83" x="465" y="353.752">BearerToken</text><line style="stroke:#181818;stroke-width:0.5;" x1="446" x2="605" y1="360.8281" y2="360.8281"/></g><!--class eThreadsGroups--><g id="elem_eThreadsGroups"><rect codeLine="53" fill="#F1F1F1" height="118.4375" id="eThreadsGroups" rx="2.5" ry="2.5" style="stroke:#181818;stroke-width:0.5;" width="167" x="603" y="54.6094"/><ellipse cx="633.75" cy="70.6094" fill="#ADD1B2" rx="11" ry="11" style="stroke:#181818;stroke-width:1.0;"/><path d="M632.6094,71.4063 L632.6094,73.9063 L636.9375,73.9063 L636.9375,72.9844 Q636.9375,72.375 637.1719,72.1094 Q637.4219,71.8438 637.7969,71.8438 Q638.1719,71.8438 638.4063,72.1094 Q638.6406,72.375 638.6406,72.9844 L638.6406,75.6094 L630.6406,75.6094 Q630.0156,75.6094 629.75,75.375 Q629.5,75.1406 629.5,74.75 Q629.5,74.375 629.7656,74.1406 Q630.0313,73.9063 630.6406,73.9063 L630.9063,73.9063 L630.9063,67.25 L630.6406,67.25 Q630.0156,67.25 629.75,67.0156 Q629.5,66.7813 629.5,66.3906 Q629.5,66.0156 629.75,65.7813 Q630.0156,65.5469 630.6406,65.5469 L638.2656,65.5469 L638.2656,68.1406 Q638.2656,68.75 638.0313,69.0156 Q637.8125,69.2656 637.4219,69.2656 Q637.0469,69.2656 636.8125,69.0156 Q636.5781,68.75 636.5781,68.1406 L636.5781,67.25 L632.6094,67.25 L632.6094,69.7031 L634.0938,69.7031 Q634.0938,69.0469 634.2188,68.8594 Q634.4844,68.4531 634.9531,68.4531 Q635.3281,68.4531 635.5625,68.7188 Q635.7969,68.9688 635.7969,69.5781 L635.7969,71.5469 Q635.7969,72.0938 635.6719,72.2813 Q635.4063,72.6719 634.9531,72.6719 Q634.4844,72.6719 634.2188,72.2656 Q634.0938,72.0781 634.0938,71.4063 L632.6094,71.4063 Z " fill="#000000"/><text fill="#000000" font-family="sans-serif" font-size="14" lengthAdjust="spacing" textLength="100" x="651.25" y="76.3379">ThreadsGroups</text><line style="stroke:#181818;stroke-width:0.5;" x1="604" x2="769" y1="86.6094" y2="86.6094"/><ellipse cx="614" cy="100.9141" fill="#000000" rx="3" ry="3" style="stroke:#000000;stroke-width:1.0;"/><text fill="#000000" font-family="sans-serif" font-size="14" lengthAdjust="spacing" textLength="141" x="623" y="105.1426">ref : uuid &#171;generated&#187;</text><line style="stroke:#181818;stroke-width:1.0;" x1="604" x2="769" y1="112.2188" y2="112.2188"/><ellipse cx="614" cy="126.5234" fill="#000000" rx="3" ry="3" style="stroke:#000000;stroke-width:1.0;"/><text fill="#000000" font-family="sans-serif" font-size="14" lengthAdjust="spacing" textLength="133" x="623" y="130.752">name : varchar (100)</text><ellipse cx="614" cy="144.1328" fill="#000000" rx="3" ry="3" style="stroke:#000000;stroke-width:1.0;"/><text fill="#000000" font-family="sans-serif" font-size="14" lengthAdjust="spacing" textLength="128" x="623" y="148.3613">protocol : uuid &#171;FK&#187;</text><text fill="#000000" font-family="sans-serif" font-size="14" lengthAdjust="spacing" textLength="118" x="623" y="165.9707">parent : uuid &#171;FK&#187;</text></g><!--class eProtocols--><g id="elem_eProtocols"><rect codeLine="64" fill="#F1F1F1" height="118.4375" id="eProtocols" rx="2.5" ry="2.5" style="stroke:#181818;stroke-width:0.5;" width="91" x="641" y="268.1094"/><ellipse cx="656" cy="284.1094" fill="#EB937F" rx="11" ry="11" style="stroke:#181818;stroke-width:1.0;"/><path d="M654.8594,284.9063 L654.8594,287.4063 L659.1875,287.4063 L659.1875,286.4844 Q659.1875,285.875 659.4219,285.6094 Q659.6719,285.3438 660.0469,285.3438 Q660.4219,285.3438 660.6563,285.6094 Q660.8906,285.875 660.8906,286.4844 L660.8906,289.1094 L652.8906,289.1094 Q652.2656,289.1094 652,288.875 Q651.75,288.6406 651.75,288.25 Q651.75,287.875 652.0156,287.6406 Q652.2813,287.4063 652.8906,287.4063 L653.1563,287.4063 L653.1563,280.75 L652.8906,280.75 Q652.2656,280.75 652,280.5156 Q651.75,280.2813 651.75,279.8906 Q651.75,279.5156 652,279.2813 Q652.2656,279.0469 652.8906,279.0469 L660.5156,279.0469 L660.5156,281.6406 Q660.5156,282.25 660.2813,282.5156 Q660.0625,282.7656 659.6719,282.7656 Q659.2969,282.7656 659.0625,282.5156 Q658.8281,282.25 658.8281,281.6406 L658.8281,280.75 L654.8594,280.75 L654.8594,283.2031 L656.3438,283.2031 Q656.3438,282.5469 656.4688,282.3594 Q656.7344,281.9531 657.2031,281.9531 Q657.5781,281.9531 657.8125,282.2188 Q658.0469,282.4688 658.0469,283.0781 L658.0469,285.0469 Q658.0469,285.5938 657.9219,285.7813 Q657.6563,286.1719 657.2031,286.1719 Q656.7344,286.1719 656.4688,285.7656 Q656.3438,285.5781 656.3438,284.9063 L654.8594,284.9063 Z " fill="#000000"/><text fill="#000000" font-family="sans-serif" font-size="14" lengthAdjust="spacing" textLength="59" x="670" y="289.8379">Protocols</text><line style="stroke:#181818;stroke-width:0.5;" x1="642" x2="731" y1="300.1094" y2="300.1094"/><ellipse cx="652" cy="314.4141" fill="none" rx="3" ry="3" style="stroke:#038048;stroke-width:1.0;"/><text fill="#000000" font-family="sans-serif" font-size="14" lengthAdjust="spacing" textLength="28" x="661" y="318.6426">TCP</text><ellipse cx="652" cy="332.0234" fill="none" rx="3" ry="3" style="stroke:#038048;stroke-width:1.0;"/><text fill="#000000" font-family="sans-serif" font-size="14" lengthAdjust="spacing" textLength="37" x="661" y="336.252">REST</text><ellipse cx="652" cy="349.6328" fill="none" rx="3" ry="3" style="stroke:#038048;stroke-width:1.0;"/><text fill="#000000" font-family="sans-serif" font-size="14" lengthAdjust="spacing" textLength="38" x="661" y="353.8613">SOAP</text><ellipse cx="652" cy="367.2422" fill="none" rx="3" ry="3" style="stroke:#038048;stroke-width:1.0;"/><text fill="#000000" font-family="sans-serif" font-size="14" lengthAdjust="spacing" textLength="40" x="661" y="371.4707">AMQP</text><line style="stroke:#181818;stroke-width:0.5;" x1="642" x2="731" y1="378.5469" y2="378.5469"/></g><!--class eThread--><g id="elem_eThread"><rect codeLine="71" fill="#F1F1F1" height="118.4375" id="eThread" rx="2.5" ry="2.5" style="stroke:#181818;stroke-width:0.5;" width="169" x="823" y="54.6094"/><ellipse cx="880.25" cy="70.6094" fill="#ADD1B2" rx="11" ry="11" style="stroke:#181818;stroke-width:1.0;"/><path d="M879.1094,71.4063 L879.1094,73.9063 L883.4375,73.9063 L883.4375,72.9844 Q883.4375,72.375 883.6719,72.1094 Q883.9219,71.8438 884.2969,71.8438 Q884.6719,71.8438 884.9063,72.1094 Q885.1406,72.375 885.1406,72.9844 L885.1406,75.6094 L877.1406,75.6094 Q876.5156,75.6094 876.25,75.375 Q876,75.1406 876,74.75 Q876,74.375 876.2656,74.1406 Q876.5313,73.9063 877.1406,73.9063 L877.4063,73.9063 L877.4063,67.25 L877.1406,67.25 Q876.5156,67.25 876.25,67.0156 Q876,66.7813 876,66.3906 Q876,66.0156 876.25,65.7813 Q876.5156,65.5469 877.1406,65.5469 L884.7656,65.5469 L884.7656,68.1406 Q884.7656,68.75 884.5313,69.0156 Q884.3125,69.2656 883.9219,69.2656 Q883.5469,69.2656 883.3125,69.0156 Q883.0781,68.75 883.0781,68.1406 L883.0781,67.25 L879.1094,67.25 L879.1094,69.7031 L880.5938,69.7031 Q880.5938,69.0469 880.7188,68.8594 Q880.9844,68.4531 881.4531,68.4531 Q881.8281,68.4531 882.0625,68.7188 Q882.2969,68.9688 882.2969,69.5781 L882.2969,71.5469 Q882.2969,72.0938 882.1719,72.2813 Q881.9063,72.6719 881.4531,72.6719 Q880.9844,72.6719 880.7188,72.2656 Q880.5938,72.0781 880.5938,71.4063 L879.1094,71.4063 Z " fill="#000000"/><text fill="#000000" font-family="sans-serif" font-size="14" lengthAdjust="spacing" textLength="46" x="900.75" y="76.3379">Thread</text><line style="stroke:#181818;stroke-width:0.5;" x1="824" x2="991" y1="86.6094" y2="86.6094"/><ellipse cx="834" cy="100.9141" fill="#000000" rx="3" ry="3" style="stroke:#000000;stroke-width:1.0;"/><text fill="#000000" font-family="sans-serif" font-size="14" lengthAdjust="spacing" textLength="141" x="843" y="105.1426">ref : uuid &#171;generated&#187;</text><line style="stroke:#181818;stroke-width:1.0;" x1="824" x2="991" y1="112.2188" y2="112.2188"/><ellipse cx="834" cy="126.5234" fill="#000000" rx="3" ry="3" style="stroke:#000000;stroke-width:1.0;"/><text fill="#000000" font-family="sans-serif" font-size="14" lengthAdjust="spacing" textLength="133" x="843" y="130.752">name : varchar (100)</text><ellipse cx="834" cy="144.1328" fill="#000000" rx="3" ry="3" style="stroke:#000000;stroke-width:1.0;"/><text fill="#000000" font-family="sans-serif" font-size="14" lengthAdjust="spacing" textLength="114" x="843" y="148.3613">group : uuid &#171;FK&#187;</text><text fill="#000000" font-family="sans-serif" font-size="14" lengthAdjust="spacing" textLength="143" x="843" y="165.9707">file_format : uuid &#171;FK&#187;</text></g><!--class eFileFormats--><g id="elem_eFileFormats"><rect codeLine="82" fill="#F1F1F1" height="136.0469" id="eFileFormats" rx="2.5" ry="2.5" style="stroke:#181818;stroke-width:0.5;" width="107" x="1027" y="45.6094"/><ellipse cx="1042" cy="61.6094" fill="#EB937F" rx="11" ry="11" style="stroke:#181818;stroke-width:1.0;"/><path d="M1040.8594,62.4063 L1040.8594,64.9063 L1045.1875,64.9063 L1045.1875,63.9844 Q1045.1875,63.375 1045.4219,63.1094 Q1045.6719,62.8438 1046.0469,62.8438 Q1046.4219,62.8438 1046.6563,63.1094 Q1046.8906,63.375 1046.8906,63.9844 L1046.8906,66.6094 L1038.8906,66.6094 Q1038.2656,66.6094 1038,66.375 Q1037.75,66.1406 1037.75,65.75 Q1037.75,65.375 1038.0156,65.1406 Q1038.2813,64.9063 1038.8906,64.9063 L1039.1563,64.9063 L1039.1563,58.25 L1038.8906,58.25 Q1038.2656,58.25 1038,58.0156 Q1037.75,57.7813 1037.75,57.3906 Q1037.75,57.0156 1038,56.7813 Q1038.2656,56.5469 1038.8906,56.5469 L1046.5156,56.5469 L1046.5156,59.1406 Q1046.5156,59.75 1046.2813,60.0156 Q1046.0625,60.2656 1045.6719,60.2656 Q1045.2969,60.2656 1045.0625,60.0156 Q1044.8281,59.75 1044.8281,59.1406 L1044.8281,58.25 L1040.8594,58.25 L1040.8594,60.7031 L1042.3438,60.7031 Q1042.3438,60.0469 1042.4688,59.8594 Q1042.7344,59.4531 1043.2031,59.4531 Q1043.5781,59.4531 1043.8125,59.7188 Q1044.0469,59.9688 1044.0469,60.5781 L1044.0469,62.5469 Q1044.0469,63.0938 1043.9219,63.2813 Q1043.6563,63.6719 1043.2031,63.6719 Q1042.7344,63.6719 1042.4688,63.2656 Q1042.3438,63.0781 1042.3438,62.4063 L1040.8594,62.4063 Z " fill="#000000"/><text fill="#000000" font-family="sans-serif" font-size="14" lengthAdjust="spacing" textLength="75" x="1056" y="67.3379">FileFormats</text><line style="stroke:#181818;stroke-width:0.5;" x1="1028" x2="1133" y1="77.6094" y2="77.6094"/><ellipse cx="1038" cy="91.9141" fill="none" rx="3" ry="3" style="stroke:#038048;stroke-width:1.0;"/><text fill="#000000" font-family="sans-serif" font-size="14" lengthAdjust="spacing" textLength="27" x="1047" y="96.1426">XML</text><ellipse cx="1038" cy="109.5234" fill="none" rx="3" ry="3" style="stroke:#038048;stroke-width:1.0;"/><text fill="#000000" font-family="sans-serif" font-size="14" lengthAdjust="spacing" textLength="35" x="1047" y="113.752">JSON</text><ellipse cx="1038" cy="127.1328" fill="none" rx="3" ry="3" style="stroke:#038048;stroke-width:1.0;"/><text fill="#000000" font-family="sans-serif" font-size="14" lengthAdjust="spacing" textLength="28" x="1047" y="131.3613">DBF</text><ellipse cx="1038" cy="144.7422" fill="none" rx="3" ry="3" style="stroke:#038048;stroke-width:1.0;"/><text fill="#000000" font-family="sans-serif" font-size="14" lengthAdjust="spacing" textLength="28" x="1047" y="148.9707">CSV</text><ellipse cx="1038" cy="162.3516" fill="none" rx="3" ry="3" style="stroke:#038048;stroke-width:1.0;"/><text fill="#000000" font-family="sans-serif" font-size="14" lengthAdjust="spacing" textLength="26" x="1047" y="166.5801">TXT</text><line style="stroke:#181818;stroke-width:0.5;" x1="1028" x2="1133" y1="173.6563" y2="173.6563"/></g><!--class eRoutes--><g id="elem_eRoutes"><rect codeLine="90" fill="#F1F1F1" height="100.8281" id="eRoutes" rx="2.5" ry="2.5" style="stroke:#181818;stroke-width:0.5;" width="159" x="1224" y="276.6094"/><ellipse cx="1276.75" cy="292.6094" fill="#ADD1B2" rx="11" ry="11" style="stroke:#181818;stroke-width:1.0;"/><path d="M1275.6094,293.4063 L1275.6094,295.9063 L1279.9375,295.9063 L1279.9375,294.9844 Q1279.9375,294.375 1280.1719,294.1094 Q1280.4219,293.8438 1280.7969,293.8438 Q1281.1719,293.8438 1281.4063,294.1094 Q1281.6406,294.375 1281.6406,294.9844 L1281.6406,297.6094 L1273.6406,297.6094 Q1273.0156,297.6094 1272.75,297.375 Q1272.5,297.1406 1272.5,296.75 Q1272.5,296.375 1272.7656,296.1406 Q1273.0313,295.9063 1273.6406,295.9063 L1273.9063,295.9063 L1273.9063,289.25 L1273.6406,289.25 Q1273.0156,289.25 1272.75,289.0156 Q1272.5,288.7813 1272.5,288.3906 Q1272.5,288.0156 1272.75,287.7813 Q1273.0156,287.5469 1273.6406,287.5469 L1281.2656,287.5469 L1281.2656,290.1406 Q1281.2656,290.75 1281.0313,291.0156 Q1280.8125,291.2656 1280.4219,291.2656 Q1280.0469,291.2656 1279.8125,291.0156 Q1279.5781,290.75 1279.5781,290.1406 L1279.5781,289.25 L1275.6094,289.25 L1275.6094,291.7031 L1277.0938,291.7031 Q1277.0938,291.0469 1277.2188,290.8594 Q1277.4844,290.4531 1277.9531,290.4531 Q1278.3281,290.4531 1278.5625,290.7188 Q1278.7969,290.9688 1278.7969,291.5781 L1278.7969,293.5469 Q1278.7969,294.0938 1278.6719,294.2813 Q1278.4063,294.6719 1277.9531,294.6719 Q1277.4844,294.6719 1277.2188,294.2656 Q1277.0938,294.0781 1277.0938,293.4063 L1275.6094,293.4063 Z " fill="#000000"/><text fill="#000000" font-family="sans-serif" font-size="14" lengthAdjust="spacing" textLength="45" x="1297.25" y="298.3379">Routes</text><line style="stroke:#181818;stroke-width:0.5;" x1="1225" x2="1382" y1="308.6094" y2="308.6094"/><ellipse cx="1235" cy="322.9141" fill="#000000" rx="3" ry="3" style="stroke:#000000;stroke-width:1.0;"/><text fill="#000000" font-family="sans-serif" font-size="14" lengthAdjust="spacing" textLength="94" x="1244" y="327.1426">ref : uuid &#171;FK&#187;</text><line style="stroke:#181818;stroke-width:1.0;" x1="1225" x2="1382" y1="334.2188" y2="334.2188"/><ellipse cx="1235" cy="348.5234" fill="#000000" rx="3" ry="3" style="stroke:#000000;stroke-width:1.0;"/><text fill="#000000" font-family="sans-serif" font-size="14" lengthAdjust="spacing" textLength="133" x="1244" y="352.752">name : varchar (100)</text><ellipse cx="1235" cy="366.1328" fill="#000000" rx="3" ry="3" style="stroke:#000000;stroke-width:1.0;"/><text fill="#000000" font-family="sans-serif" font-size="14" lengthAdjust="spacing" textLength="110" x="1244" y="370.3613">path : varchar (0)</text></g><!--class eMessageBrokersTypes--><g id="elem_eMessageBrokersTypes"><rect codeLine="102" fill="#F1F1F1" height="83.2188" id="eMessageBrokersTypes" rx="2.5" ry="2.5" style="stroke:#181818;stroke-width:0.5;" width="177" x="1418" y="285.6094"/><ellipse cx="1433" cy="301.6094" fill="#EB937F" rx="11" ry="11" style="stroke:#181818;stroke-width:1.0;"/><path d="M1431.8594,302.4063 L1431.8594,304.9063 L1436.1875,304.9063 L1436.1875,303.9844 Q1436.1875,303.375 1436.4219,303.1094 Q1436.6719,302.8438 1437.0469,302.8438 Q1437.4219,302.8438 1437.6563,303.1094 Q1437.8906,303.375 1437.8906,303.9844 L1437.8906,306.6094 L1429.8906,306.6094 Q1429.2656,306.6094 1429,306.375 Q1428.75,306.1406 1428.75,305.75 Q1428.75,305.375 1429.0156,305.1406 Q1429.2813,304.9063 1429.8906,304.9063 L1430.1563,304.9063 L1430.1563,298.25 L1429.8906,298.25 Q1429.2656,298.25 1429,298.0156 Q1428.75,297.7813 1428.75,297.3906 Q1428.75,297.0156 1429,296.7813 Q1429.2656,296.5469 1429.8906,296.5469 L1437.5156,296.5469 L1437.5156,299.1406 Q1437.5156,299.75 1437.2813,300.0156 Q1437.0625,300.2656 1436.6719,300.2656 Q1436.2969,300.2656 1436.0625,300.0156 Q1435.8281,299.75 1435.8281,299.1406 L1435.8281,298.25 L1431.8594,298.25 L1431.8594,300.7031 L1433.3438,300.7031 Q1433.3438,300.0469 1433.4688,299.8594 Q1433.7344,299.4531 1434.2031,299.4531 Q1434.5781,299.4531 1434.8125,299.7188 Q1435.0469,299.9688 1435.0469,300.5781 L1435.0469,302.5469 Q1435.0469,303.0938 1434.9219,303.2813 Q1434.6563,303.6719 1434.2031,303.6719 Q1433.7344,303.6719 1433.4688,303.2656 Q1433.3438,303.0781 1433.3438,302.4063 L1431.8594,302.4063 Z " fill="#000000"/><text fill="#000000" font-family="sans-serif" font-size="14" lengthAdjust="spacing" textLength="145" x="1447" y="307.3379">MessageBrokersTypes</text><line style="stroke:#181818;stroke-width:0.5;" x1="1419" x2="1594" y1="317.6094" y2="317.6094"/><ellipse cx="1429" cy="331.9141" fill="none" rx="3" ry="3" style="stroke:#038048;stroke-width:1.0;"/><text fill="#000000" font-family="sans-serif" font-size="14" lengthAdjust="spacing" textLength="36" x="1438" y="336.1426">Kafka</text><ellipse cx="1429" cy="349.5234" fill="none" rx="3" ry="3" style="stroke:#038048;stroke-width:1.0;"/><text fill="#000000" font-family="sans-serif" font-size="14" lengthAdjust="spacing" textLength="41" x="1438" y="353.752">Rabbit</text><line style="stroke:#181818;stroke-width:0.5;" x1="1419" x2="1594" y1="360.8281" y2="360.8281"/></g><!--reverse link eSystems to eConnectionSettings--><g id="link_eSystems_eConnectionSettings"><path codeLine="36" d="M145.5,161.2794 C145.5,185.7894 145.5,211.7094 145.5,241.3694 " fill="none" id="eSystems-backto-eConnectionSettings" style="stroke:#181818;stroke-width:1.0;"/><polygon fill="#181818" points="145.5,155.2794,141.5,164.2794,145.5,160.2794,149.5,164.2794,145.5,155.2794" style="stroke:#181818;stroke-width:1.0;"/><text fill="#000000" font-family="sans-serif" font-size="13" lengthAdjust="spacing" textLength="43" x="101.5" y="194.8245">system</text></g><!--link eConnectionSettings to eConnectionAuthentications--><g id="link_eConnectionSettings_eConnectionAuthentications"><path codeLine="49" d="M174.23,327.6094 C185.58,327.6094 191.32,327.6094 202.93,327.6094 " fill="none" id="eConnectionSettings-to-eConnectionAuthentications" style="stroke:#181818;stroke-width:1.0;"/><polygon fill="#181818" points="208.93,327.6094,199.93,323.6094,203.93,327.6094,199.93,331.6094,208.93,327.6094" style="stroke:#181818;stroke-width:1.0;"/><text fill="#000000" font-family="sans-serif" font-size="13" lengthAdjust="spacing" textLength="25" x="179.08" y="342.1045">auth</text></g><!--reverse link eSystems to eConnectionAuthentications--><g id="link_eSystems_eConnectionAuthentications"><path codeLine="50" d="M246.5,161.2794 C246.5,185.7894 246.5,211.7094 246.5,241.3694 " fill="none" id="eSystems-backto-eConnectionAuthentications" style="stroke:#181818;stroke-width:1.0;"/><polygon fill="#181818" points="246.5,155.2794,242.5,164.2794,246.5,160.2794,250.5,164.2794,246.5,155.2794" style="stroke:#181818;stroke-width:1.0;"/><text fill="#000000" font-family="sans-serif" font-size="13" lengthAdjust="spacing" textLength="43" x="202.5" y="194.8245">system</text></g><!--link eConnectionAuthentications to eAuthenticationTypes--><g id="link_eConnectionAuthentications_eAuthenticationTypes"><path codeLine="51" d="M410.23,327.6094 C421.89,327.6094 427.66,327.6094 439,327.6094 " fill="none" id="eConnectionAuthentications-to-eAuthenticationTypes" style="stroke:#181818;stroke-width:1.0;"/><polygon fill="#181818" points="445,327.6094,436,323.6094,440,327.6094,436,331.6094,445,327.6094" style="stroke:#181818;stroke-width:1.0;"/><text fill="#000000" font-family="sans-serif" font-size="13" lengthAdjust="spacing" textLength="25" x="415.11" y="342.1045">type</text></g><!--link eThreadsGroups to eProtocols--><g id="link_eThreadsGroups_eProtocols"><path codeLine="61" d="M686.5,172.7994 C686.5,202.4194 686.5,232.1694 686.5,261.8094 " fill="none" id="eThreadsGroups-to-eProtocols" style="stroke:#181818;stroke-width:1.0;"/><polygon fill="#181818" points="686.5,267.8094,690.5,258.8094,686.5,262.8094,682.5,258.8094,686.5,267.8094" style="stroke:#181818;stroke-width:1.0;"/><text fill="#000000" font-family="sans-serif" font-size="13" lengthAdjust="spacing" textLength="46" x="639.5" y="216.7945">protocol</text></g><!--link eThreadsGroups to eThreadsGroups--><g id="link_eThreadsGroups_eThreadsGroups"><path codeLine="62" d="M686.5,54.3594 C686.5,51.9994 686.5,50.6094 686.5,50.6094 C686.5,50.6094 796.5,50.6094 796.5,50.6094 C796.5,50.6094 796.5,177.6094 796.5,177.6094 C796.5,177.6094 751,177.6094 751,177.6094 C751,177.6094 751,181.8894 751,179.0094 " fill="none" id="eThreadsGroups-to-eThreadsGroups" style="stroke:#181818;stroke-width:1.0;"/><polygon fill="#181818" points="751,173.0094,747,182.0094,751,178.0094,755,182.0094,751,173.0094" style="stroke:#181818;stroke-width:1.0;"/><text fill="#000000" font-family="sans-serif" font-size="13" lengthAdjust="spacing" textLength="36" x="778.5" y="101.7845">parent</text></g><!--reverse link eThreadsGroups to eThread--><g id="link_eThreadsGroups_eThread"><path codeLine="79" d="M776.05,113.6094 C793.29,113.6094 805.45,113.6094 822.73,113.6094 " fill="none" id="eThreadsGroups-backto-eThread" style="stroke:#181818;stroke-width:1.0;"/><polygon fill="#181818" points="770.05,113.6094,779.05,117.6094,775.05,113.6094,779.05,109.6094,770.05,113.6094" style="stroke:#181818;stroke-width:1.0;"/><text fill="#000000" font-family="sans-serif" font-size="13" lengthAdjust="spacing" textLength="32" x="788.89" y="128.1045">group</text></g><!--link eThread to eFileFormats--><g id="link_eThread_eFileFormats"><path codeLine="80" d="M992.23,113.6094 C1004.04,113.6094 1009.9,113.6094 1020.92,113.6094 " fill="none" id="eThread-to-eFileFormats" style="stroke:#181818;stroke-width:1.0;"/><polygon fill="#181818" points="1026.92,113.6094,1017.92,109.6094,1021.92,113.6094,1017.92,117.6094,1026.92,113.6094" style="stroke:#181818;stroke-width:1.0;"/><text fill="#000000" font-family="sans-serif" font-size="13" lengthAdjust="spacing" textLength="59" x="980.07" y="128.1045">file_format</text></g><!--SRC=[jLN1Zjem4BtdAonEBINILbKlQ8K4B21rIvUIRBMtQY03M2HsP3jReQh_NZknmGGlhTGjfydCvBrvpnCZzvIL8A0WEMMe3YKIBjIEHv6YAaSoMSPt5BQcOSR991b54J9TEf3EBESho3i49C4c9ZyZedzT1WMIFda6iTw186_UtzoyhIjnt3GyGrwP3ifKpxNro8hp787rI0OAKrfWzEl4zYXHo8Qi3XsNm8q6gYgQaTlRwVrWS4PKwTRsD1_jCDqIfFp1HTOkUgp9GIeiBAzz239laQ7GOsUj0O9MU0HZpXYk5UKiGQKesrgko_o_qzOLMOi8M4RBa4cbtePW7jJEptzm153L1H_To0teYQjuS3ArJvh9GjOCDQR9hi4yNJZKAlzlexhrLtAPlxPhBwsQgIc-HnRSaP1fWslA-xNzqPME5qo_zeRkFy-bMhzvr_XmEgvq9n0oEHEyAkqHdQLUwLXAmHLVypnm0FeUqyC4bkzyZZWpaXOMnmXnc1UTWxQ6lYKnigk2T8ueZU0JQ2Fs7Kd72nij9qbgm-HXwBB3-TU5VnyqTBvzh-JRrWW8cBQXENxVS570dvsxZOz3zKaDw3fggwOQQbeZ6QCyOEUMrz0ezDzmZZtDFzleK_BmnOPtewcDniatP-rJwZktv9L2Yzl4V_SNSMNLMdUSkxcDbC0NqL27FXKdRGIIhbsCUf54Qhxz4-eSfOGjZeHE2-cX1Wf7r7lOxC4j6QnML6d0tm00]--></g></svg>