<?xml version="1.0" encoding="us-ascii" standalone="no"?><svg xmlns="http://www.w3.org/2000/svg" xmlns:xlink="http://www.w3.org/1999/xlink" contentStyleType="text/css" height="864px" preserveAspectRatio="none" style="width:1416px;height:864px;background:#FFFFFF;" version="1.1" viewBox="0 0 1416 864" width="1416px" zoomAndPan="magnify"><defs/><g><text fill="#000000" font-family="sans-serif" font-size="14" font-weight="bold" lengthAdjust="spacing" textLength="137" x="632.75" y="24.5332">ER-Diagram Go ESB</text><!--class eGlobal--><g id="elem_eGlobal"><rect codeLine="6" fill="#F1F1F1" height="83.2188" id="eGlobal" rx="2.5" ry="2.5" style="stroke:#181818;stroke-width:0.5;" width="269" x="926.5" y="89.6094"/><ellipse cx="1036.25" cy="105.6094" fill="#ADD1B2" rx="11" ry="11" style="stroke:#181818;stroke-width:1.0;"/><path d="M1035.1094,106.4063 L1035.1094,108.9063 L1039.4375,108.9063 L1039.4375,107.9844 Q1039.4375,107.375 1039.6719,107.1094 Q1039.9219,106.8438 1040.2969,106.8438 Q1040.6719,106.8438 1040.9063,107.1094 Q1041.1406,107.375 1041.1406,107.9844 L1041.1406,110.6094 L1033.1406,110.6094 Q1032.5156,110.6094 1032.25,110.375 Q1032,110.1406 1032,109.75 Q1032,109.375 1032.2656,109.1406 Q1032.5313,108.9063 1033.1406,108.9063 L1033.4063,108.9063 L1033.4063,102.25 L1033.1406,102.25 Q1032.5156,102.25 1032.25,102.0156 Q1032,101.7813 1032,101.3906 Q1032,101.0156 1032.25,100.7813 Q1032.5156,100.5469 1033.1406,100.5469 L1040.7656,100.5469 L1040.7656,103.1406 Q1040.7656,103.75 1040.5313,104.0156 Q1040.3125,104.2656 1039.9219,104.2656 Q1039.5469,104.2656 1039.3125,104.0156 Q1039.0781,103.75 1039.0781,103.1406 L1039.0781,102.25 L1035.1094,102.25 L1035.1094,104.7031 L1036.5938,104.7031 Q1036.5938,104.0469 1036.7188,103.8594 Q1036.9844,103.4531 1037.4531,103.4531 Q1037.8281,103.4531 1038.0625,103.7188 Q1038.2969,103.9688 1038.2969,104.5781 L1038.2969,106.5469 Q1038.2969,107.0938 1038.1719,107.2813 Q1037.9063,107.6719 1037.4531,107.6719 Q1036.9844,107.6719 1036.7188,107.2656 Q1036.5938,107.0781 1036.5938,106.4063 L1035.1094,106.4063 Z " fill="#000000"/><text fill="#000000" font-family="sans-serif" font-size="14" lengthAdjust="spacing" textLength="41" x="1056.75" y="111.3379">Global</text><line style="stroke:#181818;stroke-width:0.5;" x1="927.5" x2="1194.5" y1="121.6094" y2="121.6094"/><ellipse cx="937.5" cy="135.9141" fill="#000000" rx="3" ry="3" style="stroke:#000000;stroke-width:1.0;"/><text fill="#000000" font-family="sans-serif" font-size="14" lengthAdjust="spacing" textLength="133" x="946.5" y="140.1426">name : varchar (100)</text><line style="stroke:#181818;stroke-width:1.0;" x1="927.5" x2="1194.5" y1="147.2188" y2="147.2188"/><ellipse cx="937.5" cy="161.5234" fill="#000000" rx="3" ry="3" style="stroke:#000000;stroke-width:1.0;"/><text fill="#000000" font-family="sans-serif" font-size="14" lengthAdjust="spacing" textLength="243" x="946.5" y="165.752">value : int, varchar, boolean, dateTime</text></g><!--class eUsers--><g id="elem_eUsers"><rect codeLine="12" fill="#F1F1F1" height="100.8281" id="eUsers" rx="2.5" ry="2.5" style="stroke:#181818;stroke-width:0.5;" width="179" x="1230.5" y="80.6094"/><ellipse cx="1297.75" cy="96.6094" fill="#ADD1B2" rx="11" ry="11" style="stroke:#181818;stroke-width:1.0;"/><path d="M1296.6094,97.4063 L1296.6094,99.9063 L1300.9375,99.9063 L1300.9375,98.9844 Q1300.9375,98.375 1301.1719,98.1094 Q1301.4219,97.8438 1301.7969,97.8438 Q1302.1719,97.8438 1302.4063,98.1094 Q1302.6406,98.375 1302.6406,98.9844 L1302.6406,101.6094 L1294.6406,101.6094 Q1294.0156,101.6094 1293.75,101.375 Q1293.5,101.1406 1293.5,100.75 Q1293.5,100.375 1293.7656,100.1406 Q1294.0313,99.9063 1294.6406,99.9063 L1294.9063,99.9063 L1294.9063,93.25 L1294.6406,93.25 Q1294.0156,93.25 1293.75,93.0156 Q1293.5,92.7813 1293.5,92.3906 Q1293.5,92.0156 1293.75,91.7813 Q1294.0156,91.5469 1294.6406,91.5469 L1302.2656,91.5469 L1302.2656,94.1406 Q1302.2656,94.75 1302.0313,95.0156 Q1301.8125,95.2656 1301.4219,95.2656 Q1301.0469,95.2656 1300.8125,95.0156 Q1300.5781,94.75 1300.5781,94.1406 L1300.5781,93.25 L1296.6094,93.25 L1296.6094,95.7031 L1298.0938,95.7031 Q1298.0938,95.0469 1298.2188,94.8594 Q1298.4844,94.4531 1298.9531,94.4531 Q1299.3281,94.4531 1299.5625,94.7188 Q1299.7969,94.9688 1299.7969,95.5781 L1299.7969,97.5469 Q1299.7969,98.0938 1299.6719,98.2813 Q1299.4063,98.6719 1298.9531,98.6719 Q1298.4844,98.6719 1298.2188,98.2656 Q1298.0938,98.0781 1298.0938,97.4063 L1296.6094,97.4063 Z " fill="#000000"/><text fill="#000000" font-family="sans-serif" font-size="14" lengthAdjust="spacing" textLength="36" x="1318.25" y="102.3379">Users</text><line style="stroke:#181818;stroke-width:0.5;" x1="1231.5" x2="1408.5" y1="112.6094" y2="112.6094"/><ellipse cx="1241.5" cy="126.9141" fill="#000000" rx="3" ry="3" style="stroke:#000000;stroke-width:1.0;"/><text fill="#000000" font-family="sans-serif" font-size="14" lengthAdjust="spacing" textLength="94" x="1250.5" y="131.1426">ref : uuid &#171;FK&#187;</text><line style="stroke:#181818;stroke-width:1.0;" x1="1231.5" x2="1408.5" y1="138.2188" y2="138.2188"/><ellipse cx="1241.5" cy="152.5234" fill="#000000" rx="3" ry="3" style="stroke:#000000;stroke-width:1.0;"/><text fill="#000000" font-family="sans-serif" font-size="14" lengthAdjust="spacing" textLength="153" x="1250.5" y="156.752">username : varchar (50)</text><ellipse cx="1241.5" cy="170.1328" fill="#000000" rx="3" ry="3" style="stroke:#000000;stroke-width:1.0;"/><text fill="#000000" font-family="sans-serif" font-size="14" lengthAdjust="spacing" textLength="150" x="1250.5" y="174.3613">password : varchar (50)</text></g><!--class eSystems--><g id="elem_eSystems"><rect codeLine="19" fill="#F1F1F1" height="83.2188" id="eSystems" rx="2.5" ry="2.5" style="stroke:#181818;stroke-width:0.5;" width="167" x="786.5" y="517.1094"/><ellipse cx="839.25" cy="533.1094" fill="#ADD1B2" rx="11" ry="11" style="stroke:#181818;stroke-width:1.0;"/><path d="M838.1094,533.9063 L838.1094,536.4063 L842.4375,536.4063 L842.4375,535.4844 Q842.4375,534.875 842.6719,534.6094 Q842.9219,534.3438 843.2969,534.3438 Q843.6719,534.3438 843.9063,534.6094 Q844.1406,534.875 844.1406,535.4844 L844.1406,538.1094 L836.1406,538.1094 Q835.5156,538.1094 835.25,537.875 Q835,537.6406 835,537.25 Q835,536.875 835.2656,536.6406 Q835.5313,536.4063 836.1406,536.4063 L836.4063,536.4063 L836.4063,529.75 L836.1406,529.75 Q835.5156,529.75 835.25,529.5156 Q835,529.2813 835,528.8906 Q835,528.5156 835.25,528.2813 Q835.5156,528.0469 836.1406,528.0469 L843.7656,528.0469 L843.7656,530.6406 Q843.7656,531.25 843.5313,531.5156 Q843.3125,531.7656 842.9219,531.7656 Q842.5469,531.7656 842.3125,531.5156 Q842.0781,531.25 842.0781,530.6406 L842.0781,529.75 L838.1094,529.75 L838.1094,532.2031 L839.5938,532.2031 Q839.5938,531.5469 839.7188,531.3594 Q839.9844,530.9531 840.4531,530.9531 Q840.8281,530.9531 841.0625,531.2188 Q841.2969,531.4688 841.2969,532.0781 L841.2969,534.0469 Q841.2969,534.5938 841.1719,534.7813 Q840.9063,535.1719 840.4531,535.1719 Q839.9844,535.1719 839.7188,534.7656 Q839.5938,534.5781 839.5938,533.9063 L838.1094,533.9063 Z " fill="#000000"/><text fill="#000000" font-family="sans-serif" font-size="14" lengthAdjust="spacing" textLength="53" x="859.75" y="538.8379">Systems</text><line style="stroke:#181818;stroke-width:0.5;" x1="787.5" x2="952.5" y1="549.1094" y2="549.1094"/><ellipse cx="797.5" cy="563.4141" fill="#000000" rx="3" ry="3" style="stroke:#000000;stroke-width:1.0;"/><text fill="#000000" font-family="sans-serif" font-size="14" lengthAdjust="spacing" textLength="141" x="806.5" y="567.6426">ref : uuid &#171;generated&#187;</text><line style="stroke:#181818;stroke-width:1.0;" x1="787.5" x2="952.5" y1="574.7188" y2="574.7188"/><ellipse cx="797.5" cy="589.0234" fill="#000000" rx="3" ry="3" style="stroke:#000000;stroke-width:1.0;"/><text fill="#000000" font-family="sans-serif" font-size="14" lengthAdjust="spacing" textLength="133" x="806.5" y="593.252">name : varchar (100)</text></g><!--class eConnectionSettings--><g id="elem_eConnectionSettings"><rect codeLine="25" fill="#F1F1F1" height="171.2656" id="eConnectionSettings" rx="2.5" ry="2.5" style="stroke:#181818;stroke-width:0.5;" width="167" x="567.5" y="686.6094"/><ellipse cx="587.9" cy="702.6094" fill="#ADD1B2" rx="11" ry="11" style="stroke:#181818;stroke-width:1.0;"/><path d="M586.7594,703.4063 L586.7594,705.9063 L591.0875,705.9063 L591.0875,704.9844 Q591.0875,704.375 591.3219,704.1094 Q591.5719,703.8438 591.9469,703.8438 Q592.3219,703.8438 592.5563,704.1094 Q592.7906,704.375 592.7906,704.9844 L592.7906,707.6094 L584.7906,707.6094 Q584.1656,707.6094 583.9,707.375 Q583.65,707.1406 583.65,706.75 Q583.65,706.375 583.9156,706.1406 Q584.1813,705.9063 584.7906,705.9063 L585.0563,705.9063 L585.0563,699.25 L584.7906,699.25 Q584.1656,699.25 583.9,699.0156 Q583.65,698.7813 583.65,698.3906 Q583.65,698.0156 583.9,697.7813 Q584.1656,697.5469 584.7906,697.5469 L592.4156,697.5469 L592.4156,700.1406 Q592.4156,700.75 592.1813,701.0156 Q591.9625,701.2656 591.5719,701.2656 Q591.1969,701.2656 590.9625,701.0156 Q590.7281,700.75 590.7281,700.1406 L590.7281,699.25 L586.7594,699.25 L586.7594,701.7031 L588.2438,701.7031 Q588.2438,701.0469 588.3688,700.8594 Q588.6344,700.4531 589.1031,700.4531 Q589.4781,700.4531 589.7125,700.7188 Q589.9469,700.9688 589.9469,701.5781 L589.9469,703.5469 Q589.9469,704.0938 589.8219,704.2813 Q589.5563,704.6719 589.1031,704.6719 Q588.6344,704.6719 588.3688,704.2656 Q588.2438,704.0781 588.2438,703.4063 L586.7594,703.4063 Z " fill="#000000"/><text fill="#000000" font-family="sans-serif" font-size="14" lengthAdjust="spacing" textLength="123" x="603.1" y="708.3379">ConnectionSettings</text><line style="stroke:#181818;stroke-width:0.5;" x1="568.5" x2="733.5" y1="718.6094" y2="718.6094"/><ellipse cx="578.5" cy="732.9141" fill="#000000" rx="3" ry="3" style="stroke:#000000;stroke-width:1.0;"/><text fill="#000000" font-family="sans-serif" font-size="14" lengthAdjust="spacing" textLength="141" x="587.5" y="737.1426">ref : uuid &#171;generated&#187;</text><line style="stroke:#181818;stroke-width:1.0;" x1="568.5" x2="733.5" y1="744.2188" y2="744.2188"/><ellipse cx="578.5" cy="758.5234" fill="#000000" rx="3" ry="3" style="stroke:#000000;stroke-width:1.0;"/><text fill="#000000" font-family="sans-serif" font-size="14" lengthAdjust="spacing" textLength="133" x="587.5" y="762.752">name : varchar (100)</text><ellipse cx="578.5" cy="776.1328" fill="#000000" rx="3" ry="3" style="stroke:#000000;stroke-width:1.0;"/><text fill="#000000" font-family="sans-serif" font-size="14" lengthAdjust="spacing" textLength="121" x="587.5" y="780.3613">system : uuid &#171;FK&#187;</text><text fill="#000000" font-family="sans-serif" font-size="14" lengthAdjust="spacing" textLength="101" x="587.5" y="797.9707">ip : varchar (50)</text><text fill="#000000" font-family="sans-serif" font-size="14" lengthAdjust="spacing" textLength="115" x="587.5" y="815.5801">port : varchar (50)</text><text fill="#000000" font-family="sans-serif" font-size="14" lengthAdjust="spacing" textLength="126" x="587.5" y="833.1895">path : varchar (300)</text><text fill="#000000" font-family="sans-serif" font-size="14" lengthAdjust="spacing" textLength="105" x="587.5" y="850.7988">auth : uuid &#171;FK&#187;</text></g><!--class eConnectionAuthentications--><g id="elem_eConnectionAuthentications"><rect codeLine="38" fill="#F1F1F1" height="171.2656" id="eConnectionAuthentications" rx="2.5" ry="2.5" style="stroke:#181818;stroke-width:0.5;" width="201" x="769.5" y="686.6094"/><ellipse cx="784.5" cy="702.6094" fill="#ADD1B2" rx="11" ry="11" style="stroke:#181818;stroke-width:1.0;"/><path d="M783.3594,703.4063 L783.3594,705.9063 L787.6875,705.9063 L787.6875,704.9844 Q787.6875,704.375 787.9219,704.1094 Q788.1719,703.8438 788.5469,703.8438 Q788.9219,703.8438 789.1563,704.1094 Q789.3906,704.375 789.3906,704.9844 L789.3906,707.6094 L781.3906,707.6094 Q780.7656,707.6094 780.5,707.375 Q780.25,707.1406 780.25,706.75 Q780.25,706.375 780.5156,706.1406 Q780.7813,705.9063 781.3906,705.9063 L781.6563,705.9063 L781.6563,699.25 L781.3906,699.25 Q780.7656,699.25 780.5,699.0156 Q780.25,698.7813 780.25,698.3906 Q780.25,698.0156 780.5,697.7813 Q780.7656,697.5469 781.3906,697.5469 L789.0156,697.5469 L789.0156,700.1406 Q789.0156,700.75 788.7813,701.0156 Q788.5625,701.2656 788.1719,701.2656 Q787.7969,701.2656 787.5625,701.0156 Q787.3281,700.75 787.3281,700.1406 L787.3281,699.25 L783.3594,699.25 L783.3594,701.7031 L784.8438,701.7031 Q784.8438,701.0469 784.9688,700.8594 Q785.2344,700.4531 785.7031,700.4531 Q786.0781,700.4531 786.3125,700.7188 Q786.5469,700.9688 786.5469,701.5781 L786.5469,703.5469 Q786.5469,704.0938 786.4219,704.2813 Q786.1563,704.6719 785.7031,704.6719 Q785.2344,704.6719 784.9688,704.2656 Q784.8438,704.0781 784.8438,703.4063 L783.3594,703.4063 Z " fill="#000000"/><text fill="#000000" font-family="sans-serif" font-size="14" lengthAdjust="spacing" textLength="169" x="798.5" y="708.3379">ConnectionAuthentications</text><line style="stroke:#181818;stroke-width:0.5;" x1="770.5" x2="969.5" y1="718.6094" y2="718.6094"/><ellipse cx="780.5" cy="732.9141" fill="#000000" rx="3" ry="3" style="stroke:#000000;stroke-width:1.0;"/><text fill="#000000" font-family="sans-serif" font-size="14" lengthAdjust="spacing" textLength="141" x="789.5" y="737.1426">ref : uuid &#171;generated&#187;</text><line style="stroke:#181818;stroke-width:1.0;" x1="770.5" x2="969.5" y1="744.2188" y2="744.2188"/><ellipse cx="780.5" cy="758.5234" fill="#000000" rx="3" ry="3" style="stroke:#000000;stroke-width:1.0;"/><text fill="#000000" font-family="sans-serif" font-size="14" lengthAdjust="spacing" textLength="133" x="789.5" y="762.752">name : varchar (100)</text><ellipse cx="780.5" cy="776.1328" fill="#000000" rx="3" ry="3" style="stroke:#000000;stroke-width:1.0;"/><text fill="#000000" font-family="sans-serif" font-size="14" lengthAdjust="spacing" textLength="121" x="789.5" y="780.3613">system : uuid &#171;FK&#187;</text><ellipse cx="780.5" cy="793.7422" fill="#000000" rx="3" ry="3" style="stroke:#000000;stroke-width:1.0;"/><text fill="#000000" font-family="sans-serif" font-size="14" lengthAdjust="spacing" textLength="104" x="789.5" y="797.9707">type : uuid &#171;FK&#187;</text><text fill="#000000" font-family="sans-serif" font-size="14" lengthAdjust="spacing" textLength="153" x="789.5" y="815.5801">username : varchar (50)</text><text fill="#000000" font-family="sans-serif" font-size="14" lengthAdjust="spacing" textLength="150" x="789.5" y="833.1895">password : varchar (50)</text><text fill="#000000" font-family="sans-serif" font-size="14" lengthAdjust="spacing" textLength="133" x="789.5" y="850.7988">token : varchar (100)</text></g><!--class eAuthenticationTypes--><g id="elem_eAuthenticationTypes"><rect codeLine="53" fill="#F1F1F1" height="83.2188" id="eAuthenticationTypes" rx="2.5" ry="2.5" style="stroke:#181818;stroke-width:0.5;" width="161" x="1005.5" y="730.6094"/><ellipse cx="1020.5" cy="746.6094" fill="#EB937F" rx="11" ry="11" style="stroke:#181818;stroke-width:1.0;"/><path d="M1019.3594,747.4063 L1019.3594,749.9063 L1023.6875,749.9063 L1023.6875,748.9844 Q1023.6875,748.375 1023.9219,748.1094 Q1024.1719,747.8438 1024.5469,747.8438 Q1024.9219,747.8438 1025.1563,748.1094 Q1025.3906,748.375 1025.3906,748.9844 L1025.3906,751.6094 L1017.3906,751.6094 Q1016.7656,751.6094 1016.5,751.375 Q1016.25,751.1406 1016.25,750.75 Q1016.25,750.375 1016.5156,750.1406 Q1016.7813,749.9063 1017.3906,749.9063 L1017.6563,749.9063 L1017.6563,743.25 L1017.3906,743.25 Q1016.7656,743.25 1016.5,743.0156 Q1016.25,742.7813 1016.25,742.3906 Q1016.25,742.0156 1016.5,741.7813 Q1016.7656,741.5469 1017.3906,741.5469 L1025.0156,741.5469 L1025.0156,744.1406 Q1025.0156,744.75 1024.7813,745.0156 Q1024.5625,745.2656 1024.1719,745.2656 Q1023.7969,745.2656 1023.5625,745.0156 Q1023.3281,744.75 1023.3281,744.1406 L1023.3281,743.25 L1019.3594,743.25 L1019.3594,745.7031 L1020.8438,745.7031 Q1020.8438,745.0469 1020.9688,744.8594 Q1021.2344,744.4531 1021.7031,744.4531 Q1022.0781,744.4531 1022.3125,744.7188 Q1022.5469,744.9688 1022.5469,745.5781 L1022.5469,747.5469 Q1022.5469,748.0938 1022.4219,748.2813 Q1022.1563,748.6719 1021.7031,748.6719 Q1021.2344,748.6719 1020.9688,748.2656 Q1020.8438,748.0781 1020.8438,747.4063 L1019.3594,747.4063 Z " fill="#000000"/><text fill="#000000" font-family="sans-serif" font-size="14" lengthAdjust="spacing" textLength="129" x="1034.5" y="752.3379">AuthenticationTypes</text><line style="stroke:#181818;stroke-width:0.5;" x1="1006.5" x2="1165.5" y1="762.6094" y2="762.6094"/><ellipse cx="1016.5" cy="776.9141" fill="none" rx="3" ry="3" style="stroke:#038048;stroke-width:1.0;"/><text fill="#000000" font-family="sans-serif" font-size="14" lengthAdjust="spacing" textLength="34" x="1025.5" y="781.1426">Basic</text><ellipse cx="1016.5" cy="794.5234" fill="none" rx="3" ry="3" style="stroke:#038048;stroke-width:1.0;"/><text fill="#000000" font-family="sans-serif" font-size="14" lengthAdjust="spacing" textLength="83" x="1025.5" y="798.752">BearerToken</text><line style="stroke:#181818;stroke-width:0.5;" x1="1006.5" x2="1165.5" y1="805.8281" y2="805.8281"/></g><!--class eThreadsGroups--><g id="elem_eThreadsGroups"><rect codeLine="58" fill="#F1F1F1" height="136.0469" id="eThreadsGroups" rx="2.5" ry="2.5" style="stroke:#181818;stroke-width:0.5;" width="209" x="312.5" y="490.6094"/><ellipse cx="362.75" cy="506.6094" fill="#ADD1B2" rx="11" ry="11" style="stroke:#181818;stroke-width:1.0;"/><path d="M361.6094,507.4063 L361.6094,509.9063 L365.9375,509.9063 L365.9375,508.9844 Q365.9375,508.375 366.1719,508.1094 Q366.4219,507.8438 366.7969,507.8438 Q367.1719,507.8438 367.4063,508.1094 Q367.6406,508.375 367.6406,508.9844 L367.6406,511.6094 L359.6406,511.6094 Q359.0156,511.6094 358.75,511.375 Q358.5,511.1406 358.5,510.75 Q358.5,510.375 358.7656,510.1406 Q359.0313,509.9063 359.6406,509.9063 L359.9063,509.9063 L359.9063,503.25 L359.6406,503.25 Q359.0156,503.25 358.75,503.0156 Q358.5,502.7813 358.5,502.3906 Q358.5,502.0156 358.75,501.7813 Q359.0156,501.5469 359.6406,501.5469 L367.2656,501.5469 L367.2656,504.1406 Q367.2656,504.75 367.0313,505.0156 Q366.8125,505.2656 366.4219,505.2656 Q366.0469,505.2656 365.8125,505.0156 Q365.5781,504.75 365.5781,504.1406 L365.5781,503.25 L361.6094,503.25 L361.6094,505.7031 L363.0938,505.7031 Q363.0938,505.0469 363.2188,504.8594 Q363.4844,504.4531 363.9531,504.4531 Q364.3281,504.4531 364.5625,504.7188 Q364.7969,504.9688 364.7969,505.5781 L364.7969,507.5469 Q364.7969,508.0938 364.6719,508.2813 Q364.4063,508.6719 363.9531,508.6719 Q363.4844,508.6719 363.2188,508.2656 Q363.0938,508.0781 363.0938,507.4063 L361.6094,507.4063 Z " fill="#000000"/><text fill="#000000" font-family="sans-serif" font-size="14" lengthAdjust="spacing" textLength="100" x="383.25" y="512.3379">ThreadsGroups</text><line style="stroke:#181818;stroke-width:0.5;" x1="313.5" x2="520.5" y1="522.6094" y2="522.6094"/><ellipse cx="323.5" cy="536.9141" fill="#000000" rx="3" ry="3" style="stroke:#000000;stroke-width:1.0;"/><text fill="#000000" font-family="sans-serif" font-size="14" lengthAdjust="spacing" textLength="141" x="332.5" y="541.1426">ref : uuid &#171;generated&#187;</text><line style="stroke:#181818;stroke-width:1.0;" x1="313.5" x2="520.5" y1="548.2188" y2="548.2188"/><ellipse cx="323.5" cy="562.5234" fill="#000000" rx="3" ry="3" style="stroke:#000000;stroke-width:1.0;"/><text fill="#000000" font-family="sans-serif" font-size="14" lengthAdjust="spacing" textLength="133" x="332.5" y="566.752">name : varchar (100)</text><ellipse cx="323.5" cy="580.1328" fill="#000000" rx="3" ry="3" style="stroke:#000000;stroke-width:1.0;"/><text fill="#000000" font-family="sans-serif" font-size="14" lengthAdjust="spacing" textLength="128" x="332.5" y="584.3613">protocol : uuid &#171;FK&#187;</text><text fill="#000000" font-family="sans-serif" font-size="14" lengthAdjust="spacing" textLength="118" x="332.5" y="601.9707">parent : uuid &#171;FK&#187;</text><text fill="#000000" font-family="sans-serif" font-size="14" lengthAdjust="spacing" textLength="183" x="332.5" y="619.5801">message_broker : uuid &#171;FK&#187;</text></g><!--class eMessageBrokersTypes--><g id="elem_eMessageBrokersTypes"><rect codeLine="67" fill="#F1F1F1" height="83.2188" id="eMessageBrokersTypes" rx="2.5" ry="2.5" style="stroke:#181818;stroke-width:0.5;" width="177" x="574.5" y="517.1094"/><ellipse cx="589.5" cy="533.1094" fill="#EB937F" rx="11" ry="11" style="stroke:#181818;stroke-width:1.0;"/><path d="M588.3594,533.9063 L588.3594,536.4063 L592.6875,536.4063 L592.6875,535.4844 Q592.6875,534.875 592.9219,534.6094 Q593.1719,534.3438 593.5469,534.3438 Q593.9219,534.3438 594.1563,534.6094 Q594.3906,534.875 594.3906,535.4844 L594.3906,538.1094 L586.3906,538.1094 Q585.7656,538.1094 585.5,537.875 Q585.25,537.6406 585.25,537.25 Q585.25,536.875 585.5156,536.6406 Q585.7813,536.4063 586.3906,536.4063 L586.6563,536.4063 L586.6563,529.75 L586.3906,529.75 Q585.7656,529.75 585.5,529.5156 Q585.25,529.2813 585.25,528.8906 Q585.25,528.5156 585.5,528.2813 Q585.7656,528.0469 586.3906,528.0469 L594.0156,528.0469 L594.0156,530.6406 Q594.0156,531.25 593.7813,531.5156 Q593.5625,531.7656 593.1719,531.7656 Q592.7969,531.7656 592.5625,531.5156 Q592.3281,531.25 592.3281,530.6406 L592.3281,529.75 L588.3594,529.75 L588.3594,532.2031 L589.8438,532.2031 Q589.8438,531.5469 589.9688,531.3594 Q590.2344,530.9531 590.7031,530.9531 Q591.0781,530.9531 591.3125,531.2188 Q591.5469,531.4688 591.5469,532.0781 L591.5469,534.0469 Q591.5469,534.5938 591.4219,534.7813 Q591.1563,535.1719 590.7031,535.1719 Q590.2344,535.1719 589.9688,534.7656 Q589.8438,534.5781 589.8438,533.9063 L588.3594,533.9063 Z " fill="#000000"/><text fill="#000000" font-family="sans-serif" font-size="14" lengthAdjust="spacing" textLength="145" x="603.5" y="538.8379">MessageBrokersTypes</text><line style="stroke:#181818;stroke-width:0.5;" x1="575.5" x2="750.5" y1="549.1094" y2="549.1094"/><ellipse cx="585.5" cy="563.4141" fill="none" rx="3" ry="3" style="stroke:#038048;stroke-width:1.0;"/><text fill="#000000" font-family="sans-serif" font-size="14" lengthAdjust="spacing" textLength="36" x="594.5" y="567.6426">Kafka</text><ellipse cx="585.5" cy="581.0234" fill="none" rx="3" ry="3" style="stroke:#038048;stroke-width:1.0;"/><text fill="#000000" font-family="sans-serif" font-size="14" lengthAdjust="spacing" textLength="41" x="594.5" y="585.252">Rabbit</text><line style="stroke:#181818;stroke-width:0.5;" x1="575.5" x2="750.5" y1="592.3281" y2="592.3281"/></g><!--class eProtocols--><g id="elem_eProtocols"><rect codeLine="76" fill="#F1F1F1" height="118.4375" id="eProtocols" rx="2.5" ry="2.5" style="stroke:#181818;stroke-width:0.5;" width="91" x="371.5" y="713.1094"/><ellipse cx="386.5" cy="729.1094" fill="#EB937F" rx="11" ry="11" style="stroke:#181818;stroke-width:1.0;"/><path d="M385.3594,729.9063 L385.3594,732.4063 L389.6875,732.4063 L389.6875,731.4844 Q389.6875,730.875 389.9219,730.6094 Q390.1719,730.3438 390.5469,730.3438 Q390.9219,730.3438 391.1563,730.6094 Q391.3906,730.875 391.3906,731.4844 L391.3906,734.1094 L383.3906,734.1094 Q382.7656,734.1094 382.5,733.875 Q382.25,733.6406 382.25,733.25 Q382.25,732.875 382.5156,732.6406 Q382.7813,732.4063 383.3906,732.4063 L383.6563,732.4063 L383.6563,725.75 L383.3906,725.75 Q382.7656,725.75 382.5,725.5156 Q382.25,725.2813 382.25,724.8906 Q382.25,724.5156 382.5,724.2813 Q382.7656,724.0469 383.3906,724.0469 L391.0156,724.0469 L391.0156,726.6406 Q391.0156,727.25 390.7813,727.5156 Q390.5625,727.7656 390.1719,727.7656 Q389.7969,727.7656 389.5625,727.5156 Q389.3281,727.25 389.3281,726.6406 L389.3281,725.75 L385.3594,725.75 L385.3594,728.2031 L386.8438,728.2031 Q386.8438,727.5469 386.9688,727.3594 Q387.2344,726.9531 387.7031,726.9531 Q388.0781,726.9531 388.3125,727.2188 Q388.5469,727.4688 388.5469,728.0781 L388.5469,730.0469 Q388.5469,730.5938 388.4219,730.7813 Q388.1563,731.1719 387.7031,731.1719 Q387.2344,731.1719 386.9688,730.7656 Q386.8438,730.5781 386.8438,729.9063 L385.3594,729.9063 Z " fill="#000000"/><text fill="#000000" font-family="sans-serif" font-size="14" lengthAdjust="spacing" textLength="59" x="400.5" y="734.8379">Protocols</text><line style="stroke:#181818;stroke-width:0.5;" x1="372.5" x2="461.5" y1="745.1094" y2="745.1094"/><ellipse cx="382.5" cy="759.4141" fill="none" rx="3" ry="3" style="stroke:#038048;stroke-width:1.0;"/><text fill="#000000" font-family="sans-serif" font-size="14" lengthAdjust="spacing" textLength="28" x="391.5" y="763.6426">TCP</text><ellipse cx="382.5" cy="777.0234" fill="none" rx="3" ry="3" style="stroke:#038048;stroke-width:1.0;"/><text fill="#000000" font-family="sans-serif" font-size="14" lengthAdjust="spacing" textLength="37" x="391.5" y="781.252">REST</text><ellipse cx="382.5" cy="794.6328" fill="none" rx="3" ry="3" style="stroke:#038048;stroke-width:1.0;"/><text fill="#000000" font-family="sans-serif" font-size="14" lengthAdjust="spacing" textLength="38" x="391.5" y="798.8613">SOAP</text><ellipse cx="382.5" cy="812.2422" fill="none" rx="3" ry="3" style="stroke:#038048;stroke-width:1.0;"/><text fill="#000000" font-family="sans-serif" font-size="14" lengthAdjust="spacing" textLength="40" x="391.5" y="816.4707">AMQP</text><line style="stroke:#181818;stroke-width:0.5;" x1="372.5" x2="461.5" y1="823.5469" y2="823.5469"/></g><!--class eThreads--><g id="elem_eThreads"><rect codeLine="83" fill="#F1F1F1" height="118.4375" id="eThreads" rx="2.5" ry="2.5" style="stroke:#181818;stroke-width:0.5;" width="258" x="19" y="499.6094"/><ellipse cx="120.75" cy="515.6094" fill="#ADD1B2" rx="11" ry="11" style="stroke:#181818;stroke-width:1.0;"/><path d="M119.6094,516.4063 L119.6094,518.9063 L123.9375,518.9063 L123.9375,517.9844 Q123.9375,517.375 124.1719,517.1094 Q124.4219,516.8438 124.7969,516.8438 Q125.1719,516.8438 125.4063,517.1094 Q125.6406,517.375 125.6406,517.9844 L125.6406,520.6094 L117.6406,520.6094 Q117.0156,520.6094 116.75,520.375 Q116.5,520.1406 116.5,519.75 Q116.5,519.375 116.7656,519.1406 Q117.0313,518.9063 117.6406,518.9063 L117.9063,518.9063 L117.9063,512.25 L117.6406,512.25 Q117.0156,512.25 116.75,512.0156 Q116.5,511.7813 116.5,511.3906 Q116.5,511.0156 116.75,510.7813 Q117.0156,510.5469 117.6406,510.5469 L125.2656,510.5469 L125.2656,513.1406 Q125.2656,513.75 125.0313,514.0156 Q124.8125,514.2656 124.4219,514.2656 Q124.0469,514.2656 123.8125,514.0156 Q123.5781,513.75 123.5781,513.1406 L123.5781,512.25 L119.6094,512.25 L119.6094,514.7031 L121.0938,514.7031 Q121.0938,514.0469 121.2188,513.8594 Q121.4844,513.4531 121.9531,513.4531 Q122.3281,513.4531 122.5625,513.7188 Q122.7969,513.9688 122.7969,514.5781 L122.7969,516.5469 Q122.7969,517.0938 122.6719,517.2813 Q122.4063,517.6719 121.9531,517.6719 Q121.4844,517.6719 121.2188,517.2656 Q121.0938,517.0781 121.0938,516.4063 L119.6094,516.4063 Z " fill="#000000"/><text fill="#000000" font-family="sans-serif" font-size="14" lengthAdjust="spacing" textLength="46" x="141.25" y="521.3379">Thread</text><line style="stroke:#181818;stroke-width:0.5;" x1="20" x2="276" y1="531.6094" y2="531.6094"/><ellipse cx="30" cy="545.9141" fill="#000000" rx="3" ry="3" style="stroke:#000000;stroke-width:1.0;"/><text fill="#000000" font-family="sans-serif" font-size="14" lengthAdjust="spacing" textLength="141" x="39" y="550.1426">ref : uuid &#171;generated&#187;</text><line style="stroke:#181818;stroke-width:1.0;" x1="20" x2="276" y1="557.2188" y2="557.2188"/><ellipse cx="30" cy="571.5234" fill="#000000" rx="3" ry="3" style="stroke:#000000;stroke-width:1.0;"/><text fill="#000000" font-family="sans-serif" font-size="14" lengthAdjust="spacing" textLength="133" x="39" y="575.752">name : varchar (100)</text><ellipse cx="30" cy="589.1328" fill="#000000" rx="3" ry="3" style="stroke:#000000;stroke-width:1.0;"/><text fill="#000000" font-family="sans-serif" font-size="14" lengthAdjust="spacing" textLength="114" x="39" y="593.3613">group : uuid &#171;FK&#187;</text><text fill="#000000" font-family="sans-serif" font-size="14" lengthAdjust="spacing" textLength="232" x="39" y="610.9707">message_converte_type : uuid &#171;FK&#187;</text></g><!--class eMessageConverteTypes--><g id="elem_eMessageConverteTypes"><rect codeLine="94" fill="#F1F1F1" height="100.8281" id="eMessageConverteTypes" rx="2.5" ry="2.5" style="stroke:#181818;stroke-width:0.5;" width="179" x="58.5" y="721.6094"/><ellipse cx="73.5" cy="737.6094" fill="#EB937F" rx="11" ry="11" style="stroke:#181818;stroke-width:1.0;"/><path d="M72.3594,738.4063 L72.3594,740.9063 L76.6875,740.9063 L76.6875,739.9844 Q76.6875,739.375 76.9219,739.1094 Q77.1719,738.8438 77.5469,738.8438 Q77.9219,738.8438 78.1563,739.1094 Q78.3906,739.375 78.3906,739.9844 L78.3906,742.6094 L70.3906,742.6094 Q69.7656,742.6094 69.5,742.375 Q69.25,742.1406 69.25,741.75 Q69.25,741.375 69.5156,741.1406 Q69.7813,740.9063 70.3906,740.9063 L70.6563,740.9063 L70.6563,734.25 L70.3906,734.25 Q69.7656,734.25 69.5,734.0156 Q69.25,733.7813 69.25,733.3906 Q69.25,733.0156 69.5,732.7813 Q69.7656,732.5469 70.3906,732.5469 L78.0156,732.5469 L78.0156,735.1406 Q78.0156,735.75 77.7813,736.0156 Q77.5625,736.2656 77.1719,736.2656 Q76.7969,736.2656 76.5625,736.0156 Q76.3281,735.75 76.3281,735.1406 L76.3281,734.25 L72.3594,734.25 L72.3594,736.7031 L73.8438,736.7031 Q73.8438,736.0469 73.9688,735.8594 Q74.2344,735.4531 74.7031,735.4531 Q75.0781,735.4531 75.3125,735.7188 Q75.5469,735.9688 75.5469,736.5781 L75.5469,738.5469 Q75.5469,739.0938 75.4219,739.2813 Q75.1563,739.6719 74.7031,739.6719 Q74.2344,739.6719 73.9688,739.2656 Q73.8438,739.0781 73.8438,738.4063 L72.3594,738.4063 Z " fill="#000000"/><text fill="#000000" font-family="sans-serif" font-size="14" lengthAdjust="spacing" textLength="147" x="87.5" y="743.3379">MessageConverteType</text><line style="stroke:#181818;stroke-width:0.5;" x1="59.5" x2="236.5" y1="753.6094" y2="753.6094"/><ellipse cx="69.5" cy="767.9141" fill="none" rx="3" ry="3" style="stroke:#038048;stroke-width:1.0;"/><text fill="#000000" font-family="sans-serif" font-size="14" lengthAdjust="spacing" textLength="54" x="78.5" y="772.1426">Multiplex</text><ellipse cx="69.5" cy="785.5234" fill="none" rx="3" ry="3" style="stroke:#038048;stroke-width:1.0;"/><text fill="#000000" font-family="sans-serif" font-size="14" lengthAdjust="spacing" textLength="27" x="78.5" y="789.752">Split</text><ellipse cx="69.5" cy="803.1328" fill="none" rx="3" ry="3" style="stroke:#038048;stroke-width:1.0;"/><text fill="#000000" font-family="sans-serif" font-size="14" lengthAdjust="spacing" textLength="33" x="78.5" y="807.3613">None</text><line style="stroke:#181818;stroke-width:0.5;" x1="59.5" x2="236.5" y1="814.4375" y2="814.4375"/></g><!--class eRoutes--><g id="elem_eRoutes"><rect codeLine="100" fill="#F1F1F1" height="136.0469" id="eRoutes" rx="2.5" ry="2.5" style="stroke:#181818;stroke-width:0.5;" width="159" x="988.5" y="490.6094"/><ellipse cx="1041.25" cy="506.6094" fill="#ADD1B2" rx="11" ry="11" style="stroke:#181818;stroke-width:1.0;"/><path d="M1040.1094,507.4063 L1040.1094,509.9063 L1044.4375,509.9063 L1044.4375,508.9844 Q1044.4375,508.375 1044.6719,508.1094 Q1044.9219,507.8438 1045.2969,507.8438 Q1045.6719,507.8438 1045.9063,508.1094 Q1046.1406,508.375 1046.1406,508.9844 L1046.1406,511.6094 L1038.1406,511.6094 Q1037.5156,511.6094 1037.25,511.375 Q1037,511.1406 1037,510.75 Q1037,510.375 1037.2656,510.1406 Q1037.5313,509.9063 1038.1406,509.9063 L1038.4063,509.9063 L1038.4063,503.25 L1038.1406,503.25 Q1037.5156,503.25 1037.25,503.0156 Q1037,502.7813 1037,502.3906 Q1037,502.0156 1037.25,501.7813 Q1037.5156,501.5469 1038.1406,501.5469 L1045.7656,501.5469 L1045.7656,504.1406 Q1045.7656,504.75 1045.5313,505.0156 Q1045.3125,505.2656 1044.9219,505.2656 Q1044.5469,505.2656 1044.3125,505.0156 Q1044.0781,504.75 1044.0781,504.1406 L1044.0781,503.25 L1040.1094,503.25 L1040.1094,505.7031 L1041.5938,505.7031 Q1041.5938,505.0469 1041.7188,504.8594 Q1041.9844,504.4531 1042.4531,504.4531 Q1042.8281,504.4531 1043.0625,504.7188 Q1043.2969,504.9688 1043.2969,505.5781 L1043.2969,507.5469 Q1043.2969,508.0938 1043.1719,508.2813 Q1042.9063,508.6719 1042.4531,508.6719 Q1041.9844,508.6719 1041.7188,508.2656 Q1041.5938,508.0781 1041.5938,507.4063 L1040.1094,507.4063 Z " fill="#000000"/><text fill="#000000" font-family="sans-serif" font-size="14" lengthAdjust="spacing" textLength="45" x="1061.75" y="512.3379">Routes</text><line style="stroke:#181818;stroke-width:0.5;" x1="989.5" x2="1146.5" y1="522.6094" y2="522.6094"/><ellipse cx="999.5" cy="536.9141" fill="#000000" rx="3" ry="3" style="stroke:#000000;stroke-width:1.0;"/><text fill="#000000" font-family="sans-serif" font-size="14" lengthAdjust="spacing" textLength="94" x="1008.5" y="541.1426">ref : uuid &#171;FK&#187;</text><line style="stroke:#181818;stroke-width:1.0;" x1="989.5" x2="1146.5" y1="548.2188" y2="548.2188"/><ellipse cx="999.5" cy="562.5234" fill="#000000" rx="3" ry="3" style="stroke:#000000;stroke-width:1.0;"/><text fill="#000000" font-family="sans-serif" font-size="14" lengthAdjust="spacing" textLength="133" x="1008.5" y="566.752">name : varchar (100)</text><ellipse cx="999.5" cy="580.1328" fill="#000000" rx="3" ry="3" style="stroke:#000000;stroke-width:1.0;"/><text fill="#000000" font-family="sans-serif" font-size="14" lengthAdjust="spacing" textLength="110" x="1008.5" y="584.3613">path : varchar (0)</text><ellipse cx="999.5" cy="597.7422" fill="#000000" rx="3" ry="3" style="stroke:#000000;stroke-width:1.0;"/><text fill="#000000" font-family="sans-serif" font-size="14" lengthAdjust="spacing" textLength="121" x="1008.5" y="601.9707">system : uuid &#171;FK&#187;</text><text fill="#000000" font-family="sans-serif" font-size="14" lengthAdjust="spacing" textLength="124" x="1008.5" y="619.5801">method : uuid &#171;FK&#187;</text></g><!--class eRestMethods--><g id="elem_eRestMethods"><rect codeLine="112" fill="#F1F1F1" height="136.0469" id="eRestMethods" rx="2.5" ry="2.5" style="stroke:#181818;stroke-width:0.5;" width="115" x="1201.5" y="704.1094"/><ellipse cx="1216.5" cy="720.1094" fill="#EB937F" rx="11" ry="11" style="stroke:#181818;stroke-width:1.0;"/><path d="M1215.3594,720.9063 L1215.3594,723.4063 L1219.6875,723.4063 L1219.6875,722.4844 Q1219.6875,721.875 1219.9219,721.6094 Q1220.1719,721.3438 1220.5469,721.3438 Q1220.9219,721.3438 1221.1563,721.6094 Q1221.3906,721.875 1221.3906,722.4844 L1221.3906,725.1094 L1213.3906,725.1094 Q1212.7656,725.1094 1212.5,724.875 Q1212.25,724.6406 1212.25,724.25 Q1212.25,723.875 1212.5156,723.6406 Q1212.7813,723.4063 1213.3906,723.4063 L1213.6563,723.4063 L1213.6563,716.75 L1213.3906,716.75 Q1212.7656,716.75 1212.5,716.5156 Q1212.25,716.2813 1212.25,715.8906 Q1212.25,715.5156 1212.5,715.2813 Q1212.7656,715.0469 1213.3906,715.0469 L1221.0156,715.0469 L1221.0156,717.6406 Q1221.0156,718.25 1220.7813,718.5156 Q1220.5625,718.7656 1220.1719,718.7656 Q1219.7969,718.7656 1219.5625,718.5156 Q1219.3281,718.25 1219.3281,717.6406 L1219.3281,716.75 L1215.3594,716.75 L1215.3594,719.2031 L1216.8438,719.2031 Q1216.8438,718.5469 1216.9688,718.3594 Q1217.2344,717.9531 1217.7031,717.9531 Q1218.0781,717.9531 1218.3125,718.2188 Q1218.5469,718.4688 1218.5469,719.0781 L1218.5469,721.0469 Q1218.5469,721.5938 1218.4219,721.7813 Q1218.1563,722.1719 1217.7031,722.1719 Q1217.2344,722.1719 1216.9688,721.7656 Q1216.8438,721.5781 1216.8438,720.9063 L1215.3594,720.9063 Z " fill="#000000"/><text fill="#000000" font-family="sans-serif" font-size="14" lengthAdjust="spacing" textLength="83" x="1230.5" y="725.8379">RestMethods</text><line style="stroke:#181818;stroke-width:0.5;" x1="1202.5" x2="1315.5" y1="736.1094" y2="736.1094"/><ellipse cx="1212.5" cy="750.4141" fill="none" rx="3" ry="3" style="stroke:#038048;stroke-width:1.0;"/><text fill="#000000" font-family="sans-serif" font-size="14" lengthAdjust="spacing" textLength="23" x="1221.5" y="754.6426">Get</text><ellipse cx="1212.5" cy="768.0234" fill="none" rx="3" ry="3" style="stroke:#038048;stroke-width:1.0;"/><text fill="#000000" font-family="sans-serif" font-size="14" lengthAdjust="spacing" textLength="28" x="1221.5" y="772.252">Post</text><ellipse cx="1212.5" cy="785.6328" fill="none" rx="3" ry="3" style="stroke:#038048;stroke-width:1.0;"/><text fill="#000000" font-family="sans-serif" font-size="14" lengthAdjust="spacing" textLength="36" x="1221.5" y="789.8613">Patch</text><ellipse cx="1212.5" cy="803.2422" fill="none" rx="3" ry="3" style="stroke:#038048;stroke-width:1.0;"/><text fill="#000000" font-family="sans-serif" font-size="14" lengthAdjust="spacing" textLength="21" x="1221.5" y="807.4707">Put</text><ellipse cx="1212.5" cy="820.8516" fill="none" rx="3" ry="3" style="stroke:#038048;stroke-width:1.0;"/><text fill="#000000" font-family="sans-serif" font-size="14" lengthAdjust="spacing" textLength="41" x="1221.5" y="825.0801">Delete</text><line style="stroke:#181818;stroke-width:0.5;" x1="1202.5" x2="1315.5" y1="832.1563" y2="832.1563"/></g><!--class eThreadRoutes--><g id="elem_eThreadRoutes"><rect codeLine="120" fill="#F1F1F1" height="153.6563" id="eThreadRoutes" rx="2.5" ry="2.5" style="stroke:#181818;stroke-width:0.5;" width="169" x="523.5" y="276.6094"/><ellipse cx="559.2" cy="292.6094" fill="#ADD1B2" rx="11" ry="11" style="stroke:#181818;stroke-width:1.0;"/><path d="M558.0594,293.4063 L558.0594,295.9063 L562.3875,295.9063 L562.3875,294.9844 Q562.3875,294.375 562.6219,294.1094 Q562.8719,293.8438 563.2469,293.8438 Q563.6219,293.8438 563.8563,294.1094 Q564.0906,294.375 564.0906,294.9844 L564.0906,297.6094 L556.0906,297.6094 Q555.4656,297.6094 555.2,297.375 Q554.95,297.1406 554.95,296.75 Q554.95,296.375 555.2156,296.1406 Q555.4813,295.9063 556.0906,295.9063 L556.3563,295.9063 L556.3563,289.25 L556.0906,289.25 Q555.4656,289.25 555.2,289.0156 Q554.95,288.7813 554.95,288.3906 Q554.95,288.0156 555.2,287.7813 Q555.4656,287.5469 556.0906,287.5469 L563.7156,287.5469 L563.7156,290.1406 Q563.7156,290.75 563.4813,291.0156 Q563.2625,291.2656 562.8719,291.2656 Q562.4969,291.2656 562.2625,291.0156 Q562.0281,290.75 562.0281,290.1406 L562.0281,289.25 L558.0594,289.25 L558.0594,291.7031 L559.5438,291.7031 Q559.5438,291.0469 559.6688,290.8594 Q559.9344,290.4531 560.4031,290.4531 Q560.7781,290.4531 561.0125,290.7188 Q561.2469,290.9688 561.2469,291.5781 L561.2469,293.5469 Q561.2469,294.0938 561.1219,294.2813 Q560.8563,294.6719 560.4031,294.6719 Q559.9344,294.6719 559.6688,294.2656 Q559.5438,294.0781 559.5438,293.4063 L558.0594,293.4063 Z " fill="#000000"/><text fill="#000000" font-family="sans-serif" font-size="14" lengthAdjust="spacing" textLength="91" x="577.8" y="298.3379">ThreadRoutes</text><line style="stroke:#181818;stroke-width:0.5;" x1="524.5" x2="691.5" y1="308.6094" y2="308.6094"/><line style="stroke:#181818;stroke-width:1.0;" x1="524.5" x2="691.5" y1="316.6094" y2="316.6094"/><ellipse cx="534.5" cy="330.9141" fill="#000000" rx="3" ry="3" style="stroke:#000000;stroke-width:1.0;"/><text fill="#000000" font-family="sans-serif" font-size="14" lengthAdjust="spacing" textLength="118" x="543.5" y="335.1426">thread : uuid &#171;FK&#187;</text><ellipse cx="534.5" cy="348.5234" fill="#000000" rx="3" ry="3" style="stroke:#000000;stroke-width:1.0;"/><text fill="#000000" font-family="sans-serif" font-size="14" lengthAdjust="spacing" textLength="110" x="543.5" y="352.752">route : uuid &#171;FK&#187;</text><ellipse cx="534.5" cy="366.1328" fill="#000000" rx="3" ry="3" style="stroke:#000000;stroke-width:1.0;"/><text fill="#000000" font-family="sans-serif" font-size="14" lengthAdjust="spacing" textLength="131" x="543.5" y="370.3613">direction : uuid &#171;FK&#187;</text><ellipse cx="534.5" cy="383.7422" fill="#000000" rx="3" ry="3" style="stroke:#000000;stroke-width:1.0;"/><text fill="#000000" font-family="sans-serif" font-size="14" lengthAdjust="spacing" textLength="143" x="543.5" y="387.9707">file_format : uuid &#171;FK&#187;</text><ellipse cx="534.5" cy="401.3516" fill="#000000" rx="3" ry="3" style="stroke:#000000;stroke-width:1.0;"/><text fill="#000000" font-family="sans-serif" font-size="14" lengthAdjust="spacing" textLength="115" x="543.5" y="405.5801">object : uuid &#171;FK&#187;</text><text fill="#000000" font-family="sans-serif" font-size="14" lengthAdjust="spacing" textLength="126" x="543.5" y="423.1895">Routine : uuid &#171;FK&#187;</text></g><!--class eDirections--><g id="elem_eDirections"><rect codeLine="130" fill="#F1F1F1" height="83.2188" id="eDirections" rx="2.5" ry="2.5" style="stroke:#181818;stroke-width:0.5;" width="95" x="396.5" y="89.6094"/><ellipse cx="411.5" cy="105.6094" fill="#EB937F" rx="11" ry="11" style="stroke:#181818;stroke-width:1.0;"/><path d="M410.3594,106.4063 L410.3594,108.9063 L414.6875,108.9063 L414.6875,107.9844 Q414.6875,107.375 414.9219,107.1094 Q415.1719,106.8438 415.5469,106.8438 Q415.9219,106.8438 416.1563,107.1094 Q416.3906,107.375 416.3906,107.9844 L416.3906,110.6094 L408.3906,110.6094 Q407.7656,110.6094 407.5,110.375 Q407.25,110.1406 407.25,109.75 Q407.25,109.375 407.5156,109.1406 Q407.7813,108.9063 408.3906,108.9063 L408.6563,108.9063 L408.6563,102.25 L408.3906,102.25 Q407.7656,102.25 407.5,102.0156 Q407.25,101.7813 407.25,101.3906 Q407.25,101.0156 407.5,100.7813 Q407.7656,100.5469 408.3906,100.5469 L416.0156,100.5469 L416.0156,103.1406 Q416.0156,103.75 415.7813,104.0156 Q415.5625,104.2656 415.1719,104.2656 Q414.7969,104.2656 414.5625,104.0156 Q414.3281,103.75 414.3281,103.1406 L414.3281,102.25 L410.3594,102.25 L410.3594,104.7031 L411.8438,104.7031 Q411.8438,104.0469 411.9688,103.8594 Q412.2344,103.4531 412.7031,103.4531 Q413.0781,103.4531 413.3125,103.7188 Q413.5469,103.9688 413.5469,104.5781 L413.5469,106.5469 Q413.5469,107.0938 413.4219,107.2813 Q413.1563,107.6719 412.7031,107.6719 Q412.2344,107.6719 411.9688,107.2656 Q411.8438,107.0781 411.8438,106.4063 L410.3594,106.4063 Z " fill="#000000"/><text fill="#000000" font-family="sans-serif" font-size="14" lengthAdjust="spacing" textLength="63" x="425.5" y="111.3379">Directions</text><line style="stroke:#181818;stroke-width:0.5;" x1="397.5" x2="490.5" y1="121.6094" y2="121.6094"/><ellipse cx="407.5" cy="135.9141" fill="none" rx="3" ry="3" style="stroke:#038048;stroke-width:1.0;"/><text fill="#000000" font-family="sans-serif" font-size="14" lengthAdjust="spacing" textLength="11" x="416.5" y="140.1426">In</text><ellipse cx="407.5" cy="153.5234" fill="none" rx="3" ry="3" style="stroke:#038048;stroke-width:1.0;"/><text fill="#000000" font-family="sans-serif" font-size="14" lengthAdjust="spacing" textLength="23" x="416.5" y="157.752">Out</text><line style="stroke:#181818;stroke-width:0.5;" x1="397.5" x2="490.5" y1="164.8281" y2="164.8281"/></g><!--class eFileFormats--><g id="elem_eFileFormats"><rect codeLine="135" fill="#F1F1F1" height="136.0469" id="eFileFormats" rx="2.5" ry="2.5" style="stroke:#181818;stroke-width:0.5;" width="107" x="727.5" y="285.6094"/><ellipse cx="742.5" cy="301.6094" fill="#EB937F" rx="11" ry="11" style="stroke:#181818;stroke-width:1.0;"/><path d="M741.3594,302.4063 L741.3594,304.9063 L745.6875,304.9063 L745.6875,303.9844 Q745.6875,303.375 745.9219,303.1094 Q746.1719,302.8438 746.5469,302.8438 Q746.9219,302.8438 747.1563,303.1094 Q747.3906,303.375 747.3906,303.9844 L747.3906,306.6094 L739.3906,306.6094 Q738.7656,306.6094 738.5,306.375 Q738.25,306.1406 738.25,305.75 Q738.25,305.375 738.5156,305.1406 Q738.7813,304.9063 739.3906,304.9063 L739.6563,304.9063 L739.6563,298.25 L739.3906,298.25 Q738.7656,298.25 738.5,298.0156 Q738.25,297.7813 738.25,297.3906 Q738.25,297.0156 738.5,296.7813 Q738.7656,296.5469 739.3906,296.5469 L747.0156,296.5469 L747.0156,299.1406 Q747.0156,299.75 746.7813,300.0156 Q746.5625,300.2656 746.1719,300.2656 Q745.7969,300.2656 745.5625,300.0156 Q745.3281,299.75 745.3281,299.1406 L745.3281,298.25 L741.3594,298.25 L741.3594,300.7031 L742.8438,300.7031 Q742.8438,300.0469 742.9688,299.8594 Q743.2344,299.4531 743.7031,299.4531 Q744.0781,299.4531 744.3125,299.7188 Q744.5469,299.9688 744.5469,300.5781 L744.5469,302.5469 Q744.5469,303.0938 744.4219,303.2813 Q744.1563,303.6719 743.7031,303.6719 Q743.2344,303.6719 742.9688,303.2656 Q742.8438,303.0781 742.8438,302.4063 L741.3594,302.4063 Z " fill="#000000"/><text fill="#000000" font-family="sans-serif" font-size="14" lengthAdjust="spacing" textLength="75" x="756.5" y="307.3379">FileFormats</text><line style="stroke:#181818;stroke-width:0.5;" x1="728.5" x2="833.5" y1="317.6094" y2="317.6094"/><ellipse cx="738.5" cy="331.9141" fill="none" rx="3" ry="3" style="stroke:#038048;stroke-width:1.0;"/><text fill="#000000" font-family="sans-serif" font-size="14" lengthAdjust="spacing" textLength="27" x="747.5" y="336.1426">XML</text><ellipse cx="738.5" cy="349.5234" fill="none" rx="3" ry="3" style="stroke:#038048;stroke-width:1.0;"/><text fill="#000000" font-family="sans-serif" font-size="14" lengthAdjust="spacing" textLength="35" x="747.5" y="353.752">JSON</text><ellipse cx="738.5" cy="367.1328" fill="none" rx="3" ry="3" style="stroke:#038048;stroke-width:1.0;"/><text fill="#000000" font-family="sans-serif" font-size="14" lengthAdjust="spacing" textLength="28" x="747.5" y="371.3613">DBF</text><ellipse cx="738.5" cy="384.7422" fill="none" rx="3" ry="3" style="stroke:#038048;stroke-width:1.0;"/><text fill="#000000" font-family="sans-serif" font-size="14" lengthAdjust="spacing" textLength="28" x="747.5" y="388.9707">CSV</text><ellipse cx="738.5" cy="402.3516" fill="none" rx="3" ry="3" style="stroke:#038048;stroke-width:1.0;"/><text fill="#000000" font-family="sans-serif" font-size="14" lengthAdjust="spacing" textLength="26" x="747.5" y="406.5801">TXT</text><line style="stroke:#181818;stroke-width:0.5;" x1="728.5" x2="833.5" y1="413.6563" y2="413.6563"/></g><!--class eRoutines--><g id="elem_eRoutines"><rect codeLine="143" fill="#F1F1F1" height="118.4375" id="eRoutines" rx="2.5" ry="2.5" style="stroke:#181818;stroke-width:0.5;" width="159" x="329.5" y="294.6094"/><ellipse cx="376.75" cy="310.6094" fill="#ADD1B2" rx="11" ry="11" style="stroke:#181818;stroke-width:1.0;"/><path d="M375.6094,311.4063 L375.6094,313.9063 L379.9375,313.9063 L379.9375,312.9844 Q379.9375,312.375 380.1719,312.1094 Q380.4219,311.8438 380.7969,311.8438 Q381.1719,311.8438 381.4063,312.1094 Q381.6406,312.375 381.6406,312.9844 L381.6406,315.6094 L373.6406,315.6094 Q373.0156,315.6094 372.75,315.375 Q372.5,315.1406 372.5,314.75 Q372.5,314.375 372.7656,314.1406 Q373.0313,313.9063 373.6406,313.9063 L373.9063,313.9063 L373.9063,307.25 L373.6406,307.25 Q373.0156,307.25 372.75,307.0156 Q372.5,306.7813 372.5,306.3906 Q372.5,306.0156 372.75,305.7813 Q373.0156,305.5469 373.6406,305.5469 L381.2656,305.5469 L381.2656,308.1406 Q381.2656,308.75 381.0313,309.0156 Q380.8125,309.2656 380.4219,309.2656 Q380.0469,309.2656 379.8125,309.0156 Q379.5781,308.75 379.5781,308.1406 L379.5781,307.25 L375.6094,307.25 L375.6094,309.7031 L377.0938,309.7031 Q377.0938,309.0469 377.2188,308.8594 Q377.4844,308.4531 377.9531,308.4531 Q378.3281,308.4531 378.5625,308.7188 Q378.7969,308.9688 378.7969,309.5781 L378.7969,311.5469 Q378.7969,312.0938 378.6719,312.2813 Q378.4063,312.6719 377.9531,312.6719 Q377.4844,312.6719 377.2188,312.2656 Q377.0938,312.0781 377.0938,311.4063 L375.6094,311.4063 Z " fill="#000000"/><text fill="#000000" font-family="sans-serif" font-size="14" lengthAdjust="spacing" textLength="56" x="397.25" y="316.3379">Routines</text><line style="stroke:#181818;stroke-width:0.5;" x1="330.5" x2="487.5" y1="326.6094" y2="326.6094"/><ellipse cx="340.5" cy="340.9141" fill="#000000" rx="3" ry="3" style="stroke:#000000;stroke-width:1.0;"/><text fill="#000000" font-family="sans-serif" font-size="14" lengthAdjust="spacing" textLength="94" x="349.5" y="345.1426">ref : uuid &#171;FK&#187;</text><line style="stroke:#181818;stroke-width:1.0;" x1="330.5" x2="487.5" y1="352.2188" y2="352.2188"/><ellipse cx="340.5" cy="366.5234" fill="#000000" rx="3" ry="3" style="stroke:#000000;stroke-width:1.0;"/><text fill="#000000" font-family="sans-serif" font-size="14" lengthAdjust="spacing" textLength="133" x="349.5" y="370.752">name : varchar (100)</text><ellipse cx="340.5" cy="384.1328" fill="#000000" rx="3" ry="3" style="stroke:#000000;stroke-width:1.0;"/><text fill="#000000" font-family="sans-serif" font-size="14" lengthAdjust="spacing" textLength="104" x="349.5" y="388.3613">type : uuid &#171;FK&#187;</text><ellipse cx="340.5" cy="401.7422" fill="#000000" rx="3" ry="3" style="stroke:#000000;stroke-width:1.0;"/><text fill="#000000" font-family="sans-serif" font-size="14" lengthAdjust="spacing" textLength="113" x="349.5" y="405.9707">code : varchar (0)</text></g><!--class eRoutineTypes--><g id="elem_eRoutineTypes"><rect codeLine="153" fill="#F1F1F1" height="83.2188" id="eRoutineTypes" rx="2.5" ry="2.5" style="stroke:#181818;stroke-width:0.5;" width="120" x="174" y="312.1094"/><ellipse cx="189" cy="328.1094" fill="#EB937F" rx="11" ry="11" style="stroke:#181818;stroke-width:1.0;"/><path d="M187.8594,328.9063 L187.8594,331.4063 L192.1875,331.4063 L192.1875,330.4844 Q192.1875,329.875 192.4219,329.6094 Q192.6719,329.3438 193.0469,329.3438 Q193.4219,329.3438 193.6563,329.6094 Q193.8906,329.875 193.8906,330.4844 L193.8906,333.1094 L185.8906,333.1094 Q185.2656,333.1094 185,332.875 Q184.75,332.6406 184.75,332.25 Q184.75,331.875 185.0156,331.6406 Q185.2813,331.4063 185.8906,331.4063 L186.1563,331.4063 L186.1563,324.75 L185.8906,324.75 Q185.2656,324.75 185,324.5156 Q184.75,324.2813 184.75,323.8906 Q184.75,323.5156 185,323.2813 Q185.2656,323.0469 185.8906,323.0469 L193.5156,323.0469 L193.5156,325.6406 Q193.5156,326.25 193.2813,326.5156 Q193.0625,326.7656 192.6719,326.7656 Q192.2969,326.7656 192.0625,326.5156 Q191.8281,326.25 191.8281,325.6406 L191.8281,324.75 L187.8594,324.75 L187.8594,327.2031 L189.3438,327.2031 Q189.3438,326.5469 189.4688,326.3594 Q189.7344,325.9531 190.2031,325.9531 Q190.5781,325.9531 190.8125,326.2188 Q191.0469,326.4688 191.0469,327.0781 L191.0469,329.0469 Q191.0469,329.5938 190.9219,329.7813 Q190.6563,330.1719 190.2031,330.1719 Q189.7344,330.1719 189.4688,329.7656 Q189.3438,329.5781 189.3438,328.9063 L187.8594,328.9063 Z " fill="#000000"/><text fill="#000000" font-family="sans-serif" font-size="14" lengthAdjust="spacing" textLength="88" x="203" y="333.8379">RoutineTypes</text><line style="stroke:#181818;stroke-width:0.5;" x1="175" x2="293" y1="344.1094" y2="344.1094"/><ellipse cx="185" cy="358.4141" fill="none" rx="3" ry="3" style="stroke:#038048;stroke-width:1.0;"/><text fill="#000000" font-family="sans-serif" font-size="14" lengthAdjust="spacing" textLength="42" x="194" y="362.6426">Before</text><ellipse cx="185" cy="376.0234" fill="none" rx="3" ry="3" style="stroke:#038048;stroke-width:1.0;"/><text fill="#000000" font-family="sans-serif" font-size="14" lengthAdjust="spacing" textLength="30" x="194" y="380.252">After</text><line style="stroke:#181818;stroke-width:0.5;" x1="175" x2="293" y1="387.3281" y2="387.3281"/></g><!--class eThreadObjects--><g id="elem_eThreadObjects"><rect codeLine="158" fill="#F1F1F1" height="136.0469" id="eThreadObjects" rx="2.5" ry="2.5" style="stroke:#181818;stroke-width:0.5;" width="205" x="668.5" y="63.1094"/><ellipse cx="719.75" cy="79.1094" fill="#ADD1B2" rx="11" ry="11" style="stroke:#181818;stroke-width:1.0;"/><path d="M718.6094,79.9063 L718.6094,82.4063 L722.9375,82.4063 L722.9375,81.4844 Q722.9375,80.875 723.1719,80.6094 Q723.4219,80.3438 723.7969,80.3438 Q724.1719,80.3438 724.4063,80.6094 Q724.6406,80.875 724.6406,81.4844 L724.6406,84.1094 L716.6406,84.1094 Q716.0156,84.1094 715.75,83.875 Q715.5,83.6406 715.5,83.25 Q715.5,82.875 715.7656,82.6406 Q716.0313,82.4063 716.6406,82.4063 L716.9063,82.4063 L716.9063,75.75 L716.6406,75.75 Q716.0156,75.75 715.75,75.5156 Q715.5,75.2813 715.5,74.8906 Q715.5,74.5156 715.75,74.2813 Q716.0156,74.0469 716.6406,74.0469 L724.2656,74.0469 L724.2656,76.6406 Q724.2656,77.25 724.0313,77.5156 Q723.8125,77.7656 723.4219,77.7656 Q723.0469,77.7656 722.8125,77.5156 Q722.5781,77.25 722.5781,76.6406 L722.5781,75.75 L718.6094,75.75 L718.6094,78.2031 L720.0938,78.2031 Q720.0938,77.5469 720.2188,77.3594 Q720.4844,76.9531 720.9531,76.9531 Q721.3281,76.9531 721.5625,77.2188 Q721.7969,77.4688 721.7969,78.0781 L721.7969,80.0469 Q721.7969,80.5938 721.6719,80.7813 Q721.4063,81.1719 720.9531,81.1719 Q720.4844,81.1719 720.2188,80.7656 Q720.0938,80.5781 720.0938,79.9063 L718.6094,79.9063 Z " fill="#000000"/><text fill="#000000" font-family="sans-serif" font-size="14" lengthAdjust="spacing" textLength="94" x="740.25" y="84.8379">ThreadObjects</text><line style="stroke:#181818;stroke-width:0.5;" x1="669.5" x2="872.5" y1="95.1094" y2="95.1094"/><ellipse cx="679.5" cy="109.4141" fill="#000000" rx="3" ry="3" style="stroke:#000000;stroke-width:1.0;"/><text fill="#000000" font-family="sans-serif" font-size="14" lengthAdjust="spacing" textLength="94" x="688.5" y="113.6426">ref : uuid &#171;FK&#187;</text><line style="stroke:#181818;stroke-width:1.0;" x1="669.5" x2="872.5" y1="120.7188" y2="120.7188"/><ellipse cx="679.5" cy="135.0234" fill="#000000" rx="3" ry="3" style="stroke:#000000;stroke-width:1.0;"/><text fill="#000000" font-family="sans-serif" font-size="14" lengthAdjust="spacing" textLength="133" x="688.5" y="139.252">name : varchar (100)</text><text fill="#000000" font-family="sans-serif" font-size="14" lengthAdjust="spacing" textLength="179" x="688.5" y="156.8613">name_object : varchar (100)</text><text fill="#000000" font-family="sans-serif" font-size="14" lengthAdjust="spacing" textLength="104" x="688.5" y="174.4707">type : uuid &#171;FK&#187;</text><text fill="#000000" font-family="sans-serif" font-size="14" lengthAdjust="spacing" textLength="118" x="688.5" y="192.0801">parent : uuid &#171;FK&#187;</text></g><!--class eValueTypes--><g id="elem_eValueTypes"><rect codeLine="174" fill="#F1F1F1" height="171.2656" id="eValueTypes" rx="2.5" ry="2.5" style="stroke:#181818;stroke-width:0.5;" width="107" x="526.5" y="45.6094"/><ellipse cx="541.5" cy="61.6094" fill="#EB937F" rx="11" ry="11" style="stroke:#181818;stroke-width:1.0;"/><path d="M540.3594,62.4063 L540.3594,64.9063 L544.6875,64.9063 L544.6875,63.9844 Q544.6875,63.375 544.9219,63.1094 Q545.1719,62.8438 545.5469,62.8438 Q545.9219,62.8438 546.1563,63.1094 Q546.3906,63.375 546.3906,63.9844 L546.3906,66.6094 L538.3906,66.6094 Q537.7656,66.6094 537.5,66.375 Q537.25,66.1406 537.25,65.75 Q537.25,65.375 537.5156,65.1406 Q537.7813,64.9063 538.3906,64.9063 L538.6563,64.9063 L538.6563,58.25 L538.3906,58.25 Q537.7656,58.25 537.5,58.0156 Q537.25,57.7813 537.25,57.3906 Q537.25,57.0156 537.5,56.7813 Q537.7656,56.5469 538.3906,56.5469 L546.0156,56.5469 L546.0156,59.1406 Q546.0156,59.75 545.7813,60.0156 Q545.5625,60.2656 545.1719,60.2656 Q544.7969,60.2656 544.5625,60.0156 Q544.3281,59.75 544.3281,59.1406 L544.3281,58.25 L540.3594,58.25 L540.3594,60.7031 L541.8438,60.7031 Q541.8438,60.0469 541.9688,59.8594 Q542.2344,59.4531 542.7031,59.4531 Q543.0781,59.4531 543.3125,59.7188 Q543.5469,59.9688 543.5469,60.5781 L543.5469,62.5469 Q543.5469,63.0938 543.4219,63.2813 Q543.1563,63.6719 542.7031,63.6719 Q542.2344,63.6719 541.9688,63.2656 Q541.8438,63.0781 541.8438,62.4063 L540.3594,62.4063 Z " fill="#000000"/><text fill="#000000" font-family="sans-serif" font-size="14" lengthAdjust="spacing" textLength="75" x="555.5" y="67.3379">ValueTypes</text><line style="stroke:#181818;stroke-width:0.5;" x1="527.5" x2="632.5" y1="77.6094" y2="77.6094"/><ellipse cx="537.5" cy="91.9141" fill="none" rx="3" ry="3" style="stroke:#038048;stroke-width:1.0;"/><text fill="#000000" font-family="sans-serif" font-size="14" lengthAdjust="spacing" textLength="37" x="546.5" y="96.1426">String</text><ellipse cx="537.5" cy="109.5234" fill="none" rx="3" ry="3" style="stroke:#038048;stroke-width:1.0;"/><text fill="#000000" font-family="sans-serif" font-size="14" lengthAdjust="spacing" textLength="30" x="546.5" y="113.752">Date</text><ellipse cx="537.5" cy="127.1328" fill="none" rx="3" ry="3" style="stroke:#038048;stroke-width:1.0;"/><text fill="#000000" font-family="sans-serif" font-size="14" lengthAdjust="spacing" textLength="44" x="546.5" y="131.3613">Integer</text><ellipse cx="537.5" cy="144.7422" fill="none" rx="3" ry="3" style="stroke:#038048;stroke-width:1.0;"/><text fill="#000000" font-family="sans-serif" font-size="14" lengthAdjust="spacing" textLength="52" x="546.5" y="148.9707">Boolean</text><ellipse cx="537.5" cy="162.3516" fill="none" rx="3" ry="3" style="stroke:#038048;stroke-width:1.0;"/><text fill="#000000" font-family="sans-serif" font-size="14" lengthAdjust="spacing" textLength="23" x="546.5" y="166.5801">Null</text><ellipse cx="537.5" cy="179.9609" fill="none" rx="3" ry="3" style="stroke:#038048;stroke-width:1.0;"/><text fill="#000000" font-family="sans-serif" font-size="14" lengthAdjust="spacing" textLength="58" x="546.5" y="184.1895">Structure</text><ellipse cx="537.5" cy="197.5703" fill="none" rx="3" ry="3" style="stroke:#038048;stroke-width:1.0;"/><text fill="#000000" font-family="sans-serif" font-size="14" lengthAdjust="spacing" textLength="34" x="546.5" y="201.7988">Array</text><line style="stroke:#181818;stroke-width:0.5;" x1="527.5" x2="632.5" y1="208.875" y2="208.875"/></g><!--reverse link eSystems to eConnectionSettings--><g id="link_eSystems_eConnectionSettings"><path codeLine="36" d="M780.45,558.6094 C765.46,558.6094 760.5,558.6094 760.5,558.6094 C760.5,558.6094 760.5,743.6094 760.5,743.6094 C760.5,743.6094 749.54,743.6094 734.55,743.6094 " fill="none" id="eSystems-backto-eConnectionSettings" style="stroke:#181818;stroke-width:1.0;"/><polygon fill="#181818" points="786.45,558.6094,777.45,554.6094,781.45,558.6094,777.45,562.6094,786.45,558.6094" style="stroke:#181818;stroke-width:1.0;"/><text fill="#000000" font-family="sans-serif" font-size="13" lengthAdjust="spacing" textLength="43" x="716.5" y="647.6045">system</text></g><!--link eConnectionSettings to eConnectionAuthentications--><g id="link_eConnectionSettings_eConnectionAuthentications"><path codeLine="49" d="M734.73,800.6094 C746.08,800.6094 751.82,800.6094 763.43,800.6094 " fill="none" id="eConnectionSettings-to-eConnectionAuthentications" style="stroke:#181818;stroke-width:1.0;"/><polygon fill="#181818" points="769.43,800.6094,760.43,796.6094,764.43,800.6094,760.43,804.6094,769.43,800.6094" style="stroke:#181818;stroke-width:1.0;"/><text fill="#000000" font-family="sans-serif" font-size="13" lengthAdjust="spacing" textLength="25" x="739.58" y="815.1045">auth</text></g><!--reverse link eSystems to eConnectionAuthentications--><g id="link_eSystems_eConnectionAuthentications"><path codeLine="50" d="M870,606.2794 C870,630.7894 870,656.7094 870,686.3694 " fill="none" id="eSystems-backto-eConnectionAuthentications" style="stroke:#181818;stroke-width:1.0;"/><polygon fill="#181818" points="870,600.2794,866,609.2794,870,605.2794,874,609.2794,870,600.2794" style="stroke:#181818;stroke-width:1.0;"/><text fill="#000000" font-family="sans-serif" font-size="13" lengthAdjust="spacing" textLength="43" x="826" y="639.8245">system</text></g><!--link eConnectionAuthentications to eAuthenticationTypes--><g id="link_eConnectionAuthentications_eAuthenticationTypes"><path codeLine="51" d="M970.73,772.6094 C982.39,772.6094 988.16,772.6094 999.5,772.6094 " fill="none" id="eConnectionAuthentications-to-eAuthenticationTypes" style="stroke:#181818;stroke-width:1.0;"/><polygon fill="#181818" points="1005.5,772.6094,996.5,768.6094,1000.5,772.6094,996.5,776.6094,1005.5,772.6094" style="stroke:#181818;stroke-width:1.0;"/><text fill="#000000" font-family="sans-serif" font-size="13" lengthAdjust="spacing" textLength="25" x="975.61" y="787.1045">type</text></g><!--link eThreadsGroups to eProtocols--><g id="link_eThreadsGroups_eProtocols"><path codeLine="72" d="M417,626.7494 C417,654.4494 417,680.1594 417,706.8794 " fill="none" id="eThreadsGroups-to-eProtocols" style="stroke:#181818;stroke-width:1.0;"/><polygon fill="#181818" points="417,712.8794,421,703.8794,417,707.8794,413,703.8794,417,712.8794" style="stroke:#181818;stroke-width:1.0;"/><text fill="#000000" font-family="sans-serif" font-size="13" lengthAdjust="spacing" textLength="46" x="370" y="666.3145">protocol</text></g><!--link eThreadsGroups to eThreadsGroups--><g id="link_eThreadsGroups_eThreadsGroups"><path codeLine="73" d="M321,490.5494 C321,473.8194 321,460.6094 321,460.6094 C321,460.6094 303.25,460.6094 303.25,460.6094 C303.25,460.6094 303.25,656.6094 303.25,656.6094 C303.25,656.6094 342,656.6094 342,656.6094 C342,656.6094 342,649.3994 342,632.6694 " fill="none" id="eThreadsGroups-to-eThreadsGroups" style="stroke:#181818;stroke-width:1.0;"/><polygon fill="#181818" points="342,626.6694,338,635.6694,342,631.6694,346,635.6694,342,626.6694" style="stroke:#181818;stroke-width:1.0;"/><text fill="#000000" font-family="sans-serif" font-size="13" lengthAdjust="spacing" textLength="36" x="285.25" y="588.6045">parent</text></g><!--link eThreadsGroups to eMessageBrokersTypes--><g id="link_eThreadsGroups_eMessageBrokersTypes"><path codeLine="74" d="M521.68,558.6094 C539.21,558.6094 551.24,558.6094 568.31,558.6094 " fill="none" id="eThreadsGroups-to-eMessageBrokersTypes" style="stroke:#181818;stroke-width:1.0;"/><polygon fill="#181818" points="574.31,558.6094,565.31,554.6094,569.31,558.6094,565.31,562.6094,574.31,558.6094" style="stroke:#181818;stroke-width:1.0;"/><text fill="#000000" font-family="sans-serif" font-size="13" lengthAdjust="spacing" textLength="96" x="500" y="573.1045">message_broker</text></g><!--link eThreads to eThreadsGroups--><g id="link_eThreads_eThreadsGroups"><path codeLine="91" d="M277.38,558.6094 C289.09,558.6094 294.85,558.6094 306.31,558.6094 " fill="none" id="eThreads-to-eThreadsGroups" style="stroke:#181818;stroke-width:1.0;"/><polygon fill="#181818" points="312.31,558.6094,303.31,554.6094,307.31,558.6094,303.31,562.6094,312.31,558.6094" style="stroke:#181818;stroke-width:1.0;"/><text fill="#000000" font-family="sans-serif" font-size="13" lengthAdjust="spacing" textLength="32" x="278.84" y="573.1045">group</text></g><!--link eThreads to eMessageConverteTypes--><g id="link_eThreads_eMessageConverteTypes"><path codeLine="92" d="M148,617.7994 C148,650.3794 148,684.3894 148,715.4994 " fill="none" id="eThreads-to-eMessageConverteTypes" style="stroke:#181818;stroke-width:1.0;"/><polygon fill="#181818" points="148,721.4994,152,712.4994,148,716.4994,144,712.4994,148,721.4994" style="stroke:#181818;stroke-width:1.0;"/><text fill="#000000" font-family="sans-serif" font-size="13" lengthAdjust="spacing" textLength="140" x="7" y="666.1445">message_converte_type</text></g><!--reverse link eSystems to eRoutes--><g id="link_eSystems_eRoutes"><path codeLine="109" d="M959.68,558.6094 C971.19,558.6094 976.97,558.6094 988.4,558.6094 " fill="none" id="eSystems-backto-eRoutes" style="stroke:#181818;stroke-width:1.0;"/><polygon fill="#181818" points="953.68,558.6094,962.68,562.6094,958.68,558.6094,962.68,554.6094,953.68,558.6094" style="stroke:#181818;stroke-width:1.0;"/><text fill="#000000" font-family="sans-serif" font-size="13" lengthAdjust="spacing" textLength="43" x="949.54" y="573.1045">system</text></g><!--link eRoutes to eRestMethods--><g id="link_eRoutes_eRestMethods"><path codeLine="110" d="M1147.63,558.6094 C1182.66,558.6094 1216,558.6094 1216,558.6094 C1216,558.6094 1216,635.4894 1216,697.9694 " fill="none" id="eRoutes-to-eRestMethods" style="stroke:#181818;stroke-width:1.0;"/><polygon fill="#181818" points="1216,703.9694,1220,694.9694,1216,698.9694,1212,694.9694,1216,703.9694" style="stroke:#181818;stroke-width:1.0;"/><text fill="#000000" font-family="sans-serif" font-size="13" lengthAdjust="spacing" textLength="43" x="1172" y="593.6045">method</text></g><!--reverse link eRoutineTypes to eRoutines--><g id="link_eRoutineTypes_eRoutines"><path codeLine="151" d="M300.23,353.6094 C311.5,353.6094 317.44,353.6094 329.19,353.6094 " fill="none" id="eRoutineTypes-backto-eRoutines" style="stroke:#181818;stroke-width:1.0;"/><polygon fill="#181818" points="294.23,353.6094,303.23,357.6094,299.23,353.6094,303.23,349.6094,294.23,353.6094" style="stroke:#181818;stroke-width:1.0;"/><text fill="#000000" font-family="sans-serif" font-size="13" lengthAdjust="spacing" textLength="25" x="299.21" y="368.1045">type</text></g><!--link eThreadRoutes to eThreads--><g id="link_eThreadRoutes_eThreads"><path codeLine="167" d="M523.11,421.6094 C410.42,421.6094 225.5,421.6094 225.5,421.6094 C225.5,421.6094 225.5,456.2894 225.5,493.3194 " fill="none" id="eThreadRoutes-to-eThreads" style="stroke:#181818;stroke-width:1.0;"/><polygon fill="#181818" points="225.5,499.3194,229.5,490.3194,225.5,494.3194,221.5,490.3194,225.5,499.3194" style="stroke:#181818;stroke-width:1.0;"/><text fill="#000000" font-family="sans-serif" font-size="13" lengthAdjust="spacing" textLength="36" x="298.45" y="436.1045">thread</text></g><!--link eThreadRoutes to eRoutes--><g id="link_eThreadRoutes_eRoutes"><path codeLine="168" d="M633.5,430.8794 C633.5,468.0294 633.5,504.6094 633.5,504.6094 C633.5,504.6094 856.87,504.6094 982.31,504.6094 " fill="none" id="eThreadRoutes-to-eRoutes" style="stroke:#181818;stroke-width:1.0;"/><polygon fill="#181818" points="988.31,504.6094,979.31,500.6094,983.31,504.6094,979.31,508.6094,988.31,504.6094" style="stroke:#181818;stroke-width:1.0;"/><text fill="#000000" font-family="sans-serif" font-size="13" lengthAdjust="spacing" textLength="29" x="744.04" y="501.1045">route</text></g><!--reverse link eDirections to eThreadRoutes--><g id="link_eDirections_eThreadRoutes"><path codeLine="169" d="M442.5,178.9194 C442.5,224.6794 442.5,285.6094 442.5,285.6094 C442.5,285.6094 482.59,285.6094 523.31,285.6094 " fill="none" id="eDirections-backto-eThreadRoutes" style="stroke:#181818;stroke-width:1.0;"/><polygon fill="#181818" points="442.5,172.9194,438.5,181.9194,442.5,177.9194,446.5,181.9194,442.5,172.9194" style="stroke:#181818;stroke-width:1.0;"/><text fill="#000000" font-family="sans-serif" font-size="13" lengthAdjust="spacing" textLength="49" x="392.5" y="266.1645">direction</text></g><!--link eThreadRoutes to eFileFormats--><g id="link_eThreadRoutes_eFileFormats"><path codeLine="170" d="M692.73,353.6094 C704.54,353.6094 710.4,353.6094 721.42,353.6094 " fill="none" id="eThreadRoutes-to-eFileFormats" style="stroke:#181818;stroke-width:1.0;"/><polygon fill="#181818" points="727.42,353.6094,718.42,349.6094,722.42,353.6094,718.42,357.6094,727.42,353.6094" style="stroke:#181818;stroke-width:1.0;"/><text fill="#000000" font-family="sans-serif" font-size="13" lengthAdjust="spacing" textLength="59" x="680.57" y="368.1045">file_format</text></g><!--reverse link eRoutines to eThreadRoutes--><g id="link_eRoutines_eThreadRoutes"><path codeLine="171" d="M494.51,353.6094 C505.98,353.6094 511.83,353.6094 523.4,353.6094 " fill="none" id="eRoutines-backto-eThreadRoutes" style="stroke:#181818;stroke-width:1.0;"/><polygon fill="#181818" points="488.51,353.6094,497.51,357.6094,493.51,353.6094,497.51,349.6094,488.51,353.6094" style="stroke:#181818;stroke-width:1.0;"/><text fill="#000000" font-family="sans-serif" font-size="13" lengthAdjust="spacing" textLength="39" x="486.45" y="368.1045">routine</text></g><!--reverse link eThreadObjects to eThreadRoutes--><g id="link_eThreadObjects_eThreadRoutes"><path codeLine="172" d="M676.5,205.3794 C676.5,229.7794 676.5,251.4394 676.5,276.5294 " fill="none" id="eThreadObjects-backto-eThreadRoutes" style="stroke:#181818;stroke-width:1.0;"/><polygon fill="#181818" points="676.5,199.3794,672.5,208.3794,676.5,204.3794,680.5,208.3794,676.5,199.3794" style="stroke:#181818;stroke-width:1.0;"/><text fill="#000000" font-family="sans-serif" font-size="13" lengthAdjust="spacing" textLength="35" x="640.5" y="234.4445">object</text></g><!--reverse link eValueTypes to eThreadObjects--><g id="link_eValueTypes_eThreadObjects"><path codeLine="184" d="M639.71,131.6094 C650.64,131.6094 656.47,131.6094 668.45,131.6094 " fill="none" id="eValueTypes-backto-eThreadObjects" style="stroke:#181818;stroke-width:1.0;"/><polygon fill="#181818" points="633.71,131.6094,642.71,135.6094,638.71,131.6094,642.71,127.6094,633.71,131.6094" style="stroke:#181818;stroke-width:1.0;"/><text fill="#000000" font-family="sans-serif" font-size="13" lengthAdjust="spacing" textLength="25" x="638.58" y="146.1045">type</text></g><!--link eThreadObjects to eThreadObjects--><g id="link_eThreadObjects_eThreadObjects"><path codeLine="185" d="M771,63.0894 C771,57.8894 771,54.6094 771,54.6094 C771,54.6094 651,54.6094 651,54.6094 C651,54.6094 651,208.6094 651,208.6094 C651,208.6094 684.5,208.6094 684.5,208.6094 C684.5,208.6094 684.5,211.0294 684.5,205.4194 " fill="none" id="eThreadObjects-to-eThreadObjects" style="stroke:#181818;stroke-width:1.0;"/><polygon fill="#181818" points="684.5,199.4194,680.5,208.4194,684.5,204.4194,688.5,208.4194,684.5,199.4194" style="stroke:#181818;stroke-width:1.0;"/><text fill="#000000" font-family="sans-serif" font-size="13" lengthAdjust="spacing" textLength="36" x="633" y="108.2145">parent</text></g><!--SRC=[jLTHRzem47xFhx3wjB56wZJj9K98XHQqTHH6MDKtP983iYPnv3ZTqBJ_Fjkn4pinR58xdivtPz_TTv_FeNnAyW9JdA4qoO4T2q24iWFnF9Qm5D3johz9y5uup0Yw3SUU1pat7T75B2LRd5uWN2AePVJBG_mto746A43Fc4O7JD6RzrTNRwN5zsk7PvnMmYF9sQLskqHRGbB0-IMACODrae7tkutshGHQri6ag6DHsF63gYg9qN0ulHkDh40LT-rcyr4bCoXmMVuWDEuQZQZXiMIGgRXguOoyXnmeJplk9E24mWWm8NaE4Kj87W9ZIRvNiVhwbuULbb8MuO0iALmW5PmDJZrc1rF_GGV0bJIOfujo7VNubJzgGGrGdPaBccj-fj16MAnw27NC_nkeWRmbVVqvhfsYch0nyWIvaoCkq4RdAWya_DuPZnEWdzl1_MtTcjSlzWeSHBkg35quFEeskRRM3Ng7nhXC8Yq3fa3N0WlpVgmF571SpYYf2dMYfNgbPXUKC1AHrD5MFXrvCWv31cM9zx3PKfuqTN1U0ZEllSRIgJI0SHWQOExmxWahUOMtsuJ90-tA_LYqPgao5mtHLVGyHrtK0bMMozELMD2fLbVNHAzhQfFHbQmdIrt7RRXMOhYurjhh-TTblzzMer-fnNjHuPasHYH_1ifWuxZU1lXECENPXajiu3XHvtQ1jE9rs6BkiTXY7wP1dbSfIueKVcfyYvGpffRlIMwzeojICKt1Mlwtb_JCtUay1NyTe1dm3upO0R4UIqE_oQsTK4fHOxk2aitbCJMaGj8O6ZPLfk6i8Pk11cX9oaR4B3fekTBQ6qY1GP-a9fAcHiNGm35fShqZLBYx3752wrdiCkwI53OxGZFi6ae3iltEzpei8Zd-YNTgJjtecAgYTjrWzYbNmg9YxSOfpsSgqr4x3KMpzN7-HKcVmyMz1dOyLT8aVD3pud7TPIjFsk2hMBsKiISUy454OkWmMUIYmjPtJdDJvc6_WQQVbN3drGFUFT3pRyVuDErnQo6xQ95BgLvOkp1i6exqxIUWSJw2xLIqxgQUWXmSAJcTckijBq7NHNwa60mCK7CbkguZct01Ckw7rtPAjCtQg49pepEuZNc056IwrG_Y3upHw7RTj3bab7-nQQhpfwgvHGpslEUA3FL_7ZsigpHjjrSHgrgYK8gF4d8Zrj3l9Ie9sT6w2bBl_ny0]--></g></svg>